<svg width="21" height="21" viewBox="0 0 21 21" fill="none" xmlns="http://www.w3.org/2000/svg">
<g id="noto:basketball" clip-path="url(#clip0_1_954)">
<path id="Vector" d="M3.66022 17.7548C3.66022 17.7548 6.8135 21.0722 12.2226 20.2305C17.6318 19.3905 19.8007 14.6475 20.2469 11.9438C20.8146 8.50008 19.2412 6.13266 19.1576 6.00305C19.0952 5.90789 3.66022 17.7548 3.66022 17.7548Z" fill="#797C7C"/>
<path id="Vector_2" d="M3.41412 3.52898C0.173889 6.93984 -0.37572 11.9224 2.06061 15.773C3.19428 17.5645 3.88826 17.9287 3.88826 17.9287C3.88826 17.9287 9.18912 21.3281 15.1462 16.1749C20.2486 11.7616 19.1674 6.01453 19.1674 6.01453C19.1674 6.01453 18.5308 4.62328 17.1921 3.30258C14.2209 0.369141 7.57967 -0.858047 3.41412 3.52898Z" fill="#797C7C"/>
<path id="Vector_3" d="M16.4013 2.63156C16.3537 2.63484 11.614 2.97609 6.60023 9.71578C3.43382 13.9716 3.58968 16.9755 3.71273 17.7991C3.71273 17.7991 3.47156 17.6006 3.30093 17.4169C3.13031 17.2348 2.99742 17.0723 2.99742 17.0723C2.98429 15.6302 3.41578 12.897 6.07523 9.32367C10.1227 3.87844 13.9929 2.4593 15.6155 2.0918C15.6155 2.0918 15.814 2.20828 16.0059 2.32805C16.147 2.41664 16.4013 2.63156 16.4013 2.63156Z" fill="#D9D9D9"/>
<path id="Vector_4" d="M2.55447 4.55766C3.08111 5.42227 4.3526 7.29094 6.55432 9.24164C9.32533 11.6993 12.2063 13.6976 15.1135 15.1791C16.4867 15.8796 17.5416 16.2898 18.2881 16.5309C18.2881 16.5309 18.1798 16.6966 18.0781 16.8328C17.9763 16.969 17.8648 17.0838 17.8648 17.0838C17.1052 16.8263 16.0913 16.4161 14.8132 15.7631C11.8568 14.2554 8.92994 12.2259 6.11791 9.73219C4.03432 7.88484 2.77104 6.13594 2.15088 5.15648C2.15088 5.15648 2.23783 4.98422 2.35268 4.83164C2.46752 4.67906 2.55447 4.55766 2.55447 4.55766Z" fill="#D9D9D9"/>
<path id="Vector_5" d="M8.72482 0.782578C8.49021 1.05 8.15552 1.48477 7.76505 2.14266C7.4074 2.74313 7.22365 3.34031 7.01037 4.03266C6.66091 5.16797 6.26552 6.45422 4.97107 8.09812C3.17294 10.3819 1.40599 11.1448 0.582396 11.3892C0.582396 11.3892 0.559427 11.1759 0.551224 11.0266C0.543021 10.8773 0.546302 10.7084 0.546302 10.7084C1.32888 10.4409 2.87763 9.69281 4.45427 7.69289C5.67326 6.14414 6.04896 4.92023 6.38201 3.8407C6.59857 3.13852 6.80201 2.4757 7.20068 1.80797C7.38935 1.49133 7.56654 1.22062 7.72896 0.994219C7.72896 0.994219 7.91107 0.933515 8.16044 0.877734C8.35404 0.831797 8.72482 0.782578 8.72482 0.782578ZM11.2743 20.3454C10.7247 19.8483 9.58943 18.713 8.76091 17.133C7.8438 15.3858 7.41396 12.7575 8.63787 11.1152C10.0357 9.24164 12.6459 8.98734 15.0183 8.98734H15.0281C18.0485 8.98898 20.3208 9.62063 20.347 9.62883C20.347 9.62883 20.329 9.40734 20.3043 9.21867C20.283 9.05625 20.2601 8.90531 20.2601 8.90531C20.1452 8.87578 18.1371 8.33273 15.0281 8.33109H15.0183C12.4835 8.33109 9.6813 8.61656 8.11122 10.7231C7.1006 12.0783 6.72982 14.6803 8.18013 17.4382C8.86263 18.7376 9.72232 19.74 10.3507 20.3716C10.3507 20.3716 10.5344 20.3782 10.769 20.3749C11.0004 20.3716 11.2743 20.3454 11.2743 20.3454Z" fill="#D9D9D9"/>
</g>
<defs>
<clipPath id="clip0_1_954">
<rect width="21" height="21" fill="white"/>
</clipPath>
</defs>
</svg>
