<svg width="21" height="21" viewBox="0 0 21 21" fill="none" xmlns="http://www.w3.org/2000/svg">
<g id="material-symbols:trophy" clip-path="url(#clip0_1_914)">
<path id="Vector" d="M4.66667 21V18.6667H9.33333V15.05C8.38055 14.8361 7.53005 14.4328 6.78183 13.8402C6.03361 13.2475 5.48411 12.5036 5.13333 11.6083C3.675 11.4333 2.45506 10.7967 1.4735 9.6985C0.491944 8.60028 0.000777778 7.31189 0 5.83333V4.66667C0 4.025 0.228667 3.47589 0.686 3.01933C1.14333 2.56278 1.69244 2.33411 2.33333 2.33333H4.66667V0H16.3333V2.33333H18.6667C19.3083 2.33333 19.8578 2.562 20.3152 3.01933C20.7725 3.47667 21.0008 4.02578 21 4.66667V5.83333C21 7.31111 20.5088 8.5995 19.5265 9.6985C18.5442 10.7975 17.3242 11.4341 15.8667 11.6083C15.5167 12.5028 14.9676 13.2467 14.2193 13.8402C13.4711 14.4336 12.6202 14.8369 11.6667 15.05V18.6667H16.3333V21H4.66667ZM4.66667 9.1V4.66667H2.33333V5.83333C2.33333 6.57222 2.54722 7.23839 2.975 7.83183C3.40278 8.42528 3.96667 8.848 4.66667 9.1ZM16.3333 9.1C17.0333 8.84722 17.5972 8.42411 18.025 7.83067C18.4528 7.23722 18.6667 6.57144 18.6667 5.83333V4.66667H16.3333V9.1Z" fill="#797C7C"/>
<path id="Vector 2" d="M4.79999 11.5V0H16.3V11.5C15.9 13.1 13.4667 14.5 12.3 15H9.79999C8.19999 15 6.13332 12.6667 5.29999 11.5H4.79999Z" fill="#D9D9D9"/>
</g>
<defs>
<clipPath id="clip0_1_914">
<rect width="21" height="21" fill="white"/>
</clipPath>
</defs>
</svg>
