<svg width="21" height="21" viewBox="0 0 21 21" fill="none" xmlns="http://www.w3.org/2000/svg">
<path d="M8.28105 1.3125L3.03105 6.5625H6.80982L12.0598 1.3125H8.28105ZM2.625 1.3125C1.1751 1.3125 0 2.4876 0 3.9375V6.5625H0.248637L5.49864 1.3125H2.625ZM13.3752 6.5625L18.6006 1.33711C18.5268 1.3285 18.4529 1.3125 18.375 1.3125H14.8452L9.5952 6.5625H13.3752ZM20.4135 2.30467L16.1561 6.5625H21V3.9375C21 3.31693 20.7744 2.7542 20.4135 2.30467ZM9.19981 9.91348C9.06855 9.82324 8.89629 9.82324 8.75684 9.90117C8.61738 9.9791 8.53125 10.1309 8.53125 10.2949V15.951C8.53125 16.1154 8.61755 16.267 8.75684 16.347C8.82246 16.3857 8.89629 16.4062 8.97012 16.4062C9.05047 16.4062 9.13164 16.3833 9.20169 16.3373L13.5781 13.5084C13.7033 13.4244 13.7812 13.2809 13.7812 13.0881C13.7812 12.8953 13.7035 12.787 13.5753 12.7044L9.19981 9.91348Z" fill="#FDFFFF"/>
<path opacity="0.4" d="M0 6.5625V17.0625C0 18.5124 1.1751 19.6875 2.625 19.6875H18.375C19.8249 19.6875 21 18.5124 21 17.0625V6.5625H0ZM13.5393 13.5064L9.16289 16.3353C9.13008 16.3816 9.04805 16.4062 8.97012 16.4062C8.89752 16.4062 8.82402 16.3872 8.75823 16.3497C8.61738 16.2709 8.53125 16.0822 8.53125 15.9182V10.2949C8.53125 10.1304 8.61755 9.9789 8.75684 9.89887C8.89526 9.82021 9.067 9.82373 9.20021 9.91129L13.5766 12.7401C13.7033 12.8256 13.7812 12.9691 13.7812 13.0881C13.7812 13.207 13.7033 13.4244 13.5393 13.5064Z" fill="#FDFFFF"/>
</svg>
