<svg width="21" height="21" viewBox="0 0 21 21" fill="none" xmlns="http://www.w3.org/2000/svg">
<g id="SVG" clip-path="url(#clip0_1_898)">
<path id="Vector" d="M6.52241 6.52046C6.90796 6.13901 7.5314 6.13901 7.88003 6.52046L11.1613 9.80171C11.5796 10.1873 11.5796 10.8107 11.1613 11.1593C10.8126 11.5777 10.1892 11.5777 9.80366 11.1593L6.52241 7.87808C6.14097 7.52944 6.14097 6.90601 6.52241 6.52046Z" fill="#FDFFFF"/>
<path id="Vector_2" opacity="0.4" d="M9.1875 1.3125C9.1875 0.587754 9.77402 0 10.5 0C16.2996 0 21 4.70039 21 10.5C21 16.2996 16.2996 21 10.5 21C4.70039 21 0 16.2996 0 10.5C0 7.56328 1.20832 4.90547 3.15164 2.99988C3.66926 2.49293 4.49941 2.50113 5.00801 3.01875C5.5166 3.53678 5.5084 4.36816 4.9875 4.87676C3.52857 6.3041 2.625 8.29746 2.625 10.5C2.625 14.8477 6.11543 18.375 10.5 18.375C14.8477 18.375 18.375 14.8477 18.375 10.5C18.375 6.59941 15.5367 3.35877 11.8125 2.73369V3.9375C11.8125 4.66348 11.226 5.25 10.5 5.25C9.77402 5.25 9.1875 4.66348 9.1875 3.9375V1.3125Z" fill="#FDFFFF"/>
</g>
<defs>
<clipPath id="clip0_1_898">
<rect width="21" height="21" fill="white"/>
</clipPath>
</defs>
</svg>
