<svg width="21" height="21" viewBox="0 0 21 21" fill="none" xmlns="http://www.w3.org/2000/svg">
<g id="emojione-v1:soccer-ball" clip-path="url(#clip0_1_948)">
<path id="Vector" d="M18.8836 4.74403C22.0638 9.37387 20.8891 15.7054 16.2589 18.8829C11.6291 22.0635 5.29757 20.8884 2.11672 16.2579C-1.06412 11.6281 0.111551 5.29659 4.74172 2.11575C9.37157 -1.06411 15.7031 0.111233 18.8806 4.74075" fill="#797C7C"/>
<path id="Vector_2" d="M11.5808 13.9604L7.36901 14.4293L4.85623 11.0171L6.55657 7.13541L10.769 6.66553L13.2815 10.0793L11.5808 13.9604ZM20.1062 7.6125C19.8057 6.5629 19.3381 5.56853 18.7215 4.66758C17.833 3.37533 16.6559 2.30765 15.2834 1.54908L13.9453 4.60589L16.4577 8.01905L20.1058 7.61217M6.06405 3.85055L7.37196 0.863297C5.38032 1.47468 3.62468 2.68336 2.34279 4.32567L6.02861 3.91552C6.04108 3.8932 6.05093 3.87187 6.06405 3.85055ZM17.2705 14.0752L15.5708 17.9573L16.231 18.8537C16.2386 18.8472 16.2484 18.8439 16.2573 18.8373C18.1272 17.5537 19.4223 15.751 20.1039 13.7586L17.2689 14.0746M2.34541 13.0131L0.669678 13.2001C1.21633 15.2762 2.40152 17.0753 3.99096 18.4052L4.85754 16.4266L2.34541 13.0131Z" fill="#D9D9D9"/>
</g>
<defs>
<clipPath id="clip0_1_948">
<rect width="21" height="21" fill="white"/>
</clipPath>
</defs>
</svg>
