<svg width="21" height="21" viewBox="0 0 21 21" fill="none" xmlns="http://www.w3.org/2000/svg">
<g id="solar:tennis-2-bold-duotone">
<path id="Vector" d="M2.92251 14.875C5.33751 19.0601 10.689 20.4925 14.875 18.0775C16.5162 17.1333 17.8051 15.6801 18.5465 13.9379C19.0814 12.6887 19.3175 11.332 19.2361 9.97554C19.1546 8.6191 18.7579 7.30036 18.0775 6.12412C17.399 4.94699 16.4553 3.94432 15.3214 3.19578C14.1875 2.44725 12.8947 1.97348 11.5456 1.81212C9.6662 1.58308 7.76331 1.97256 6.12501 2.92162C1.93988 5.33837 0.505757 10.6899 2.92251 14.875Z" fill="#797C7C"/>
<path id="Vector_2" d="M12.1975 1.91625C11.7646 1.83029 11.3259 1.77706 10.885 1.757L10.8561 1.89525C10.814 2.10853 10.7801 2.32336 10.7546 2.53925C10.7444 2.62486 10.7511 2.71164 10.7744 2.79464C10.7977 2.87764 10.8372 2.95524 10.8905 3.023C10.9438 3.09077 11.0099 3.14737 11.0851 3.18958C11.1602 3.23179 11.243 3.25877 11.3286 3.269C11.4142 3.27923 11.501 3.27249 11.584 3.24918C11.667 3.22587 11.7446 3.18644 11.8124 3.13314C11.8801 3.07984 11.9367 3.01371 11.9789 2.93853C12.0211 2.86336 12.0481 2.78061 12.0583 2.695C12.0854 2.46697 12.1233 2.24038 12.1721 2.016L12.1791 1.98538L12.1808 1.981L12.1975 1.91625ZM2.21722 7.67812C2.3594 7.26026 2.53285 6.85369 2.7361 6.46188C2.98792 6.543 3.23582 6.63585 3.47897 6.74013C3.6326 6.81267 3.7521 6.94196 3.81235 7.1008C3.87261 7.25964 3.86891 7.43567 3.80204 7.59184C3.73517 7.74802 3.61035 7.87218 3.45381 7.9382C3.29728 8.00423 3.12124 8.00698 2.96272 7.94588C2.74187 7.8515 2.51642 7.76827 2.28722 7.6965L2.28285 7.69563L2.21722 7.67812ZM10.115 19.2421C9.67411 19.2224 9.23537 19.1695 8.80247 19.0837L8.81997 19.019L8.82085 19.0138C8.83542 18.9589 8.84768 18.9034 8.8576 18.8475C8.8821 18.725 8.91447 18.5413 8.94247 18.3041C8.96313 18.1312 9.05161 17.9736 9.18847 17.866C9.32532 17.7583 9.49934 17.7095 9.67222 17.7301C9.84511 17.7508 10.0027 17.8393 10.1104 17.9761C10.218 18.113 10.2669 18.287 10.2462 18.4599C10.2147 18.7225 10.1709 18.9836 10.115 19.2421ZM18.7827 13.321C18.6406 13.7389 18.4672 14.1455 18.2638 14.5373C18.0123 14.456 17.7647 14.3632 17.5218 14.259C17.4417 14.2257 17.369 14.1769 17.3078 14.1153C17.2467 14.0537 17.1984 13.9807 17.1657 13.9003C17.1329 13.8199 17.1165 13.7338 17.1173 13.6471C17.118 13.5603 17.136 13.4746 17.1702 13.3948C17.2043 13.315 17.2539 13.2428 17.3161 13.1823C17.3784 13.1218 17.452 13.0743 17.5327 13.0425C17.6134 13.0106 17.6996 12.9951 17.7864 12.9968C17.8731 12.9985 17.9587 13.0174 18.0381 13.0524C18.2491 13.1429 18.4643 13.2232 18.683 13.293L18.7136 13.3018L18.7171 13.3035L18.7827 13.321ZM12.0347 4.73725C12.0269 4.65141 12.0023 4.56796 11.9622 4.49165C11.9221 4.41534 11.8674 4.34766 11.8012 4.29249C11.735 4.23732 11.6586 4.19574 11.5763 4.17011C11.494 4.14448 11.4074 4.13531 11.3216 4.14313C11.2358 4.15094 11.1523 4.17558 11.076 4.21565C10.9997 4.25572 10.932 4.31042 10.8768 4.37664C10.8217 4.44286 10.7801 4.5193 10.7545 4.60159C10.7288 4.68388 10.7197 4.77042 10.7275 4.85625C10.7756 5.38563 10.8657 5.96225 11.0162 6.5695C11.0581 6.73844 11.1654 6.88383 11.3145 6.97367C11.4636 7.06351 11.6422 7.09045 11.8112 7.04856C11.9801 7.00667 12.1255 6.89939 12.2153 6.75031C12.3052 6.60123 12.3321 6.42257 12.2902 6.25362C12.1667 5.75538 12.0813 5.24846 12.0347 4.73725ZM5.49935 7.875C5.42909 7.82297 5.34914 7.7855 5.2642 7.7648C5.17926 7.74409 5.09103 7.74057 5.00471 7.75444C4.91839 7.7683 4.83571 7.79928 4.76152 7.84554C4.68734 7.89181 4.62315 7.95243 4.57272 8.02385C4.52229 8.09526 4.48664 8.17604 4.46786 8.26143C4.44908 8.34682 4.44755 8.43509 4.46337 8.52108C4.47918 8.60707 4.51202 8.68903 4.55995 8.76215C4.60788 8.83527 4.66993 8.89807 4.74247 8.94688C5.12747 9.21813 5.52997 9.54187 5.9281 9.92688C6.05353 10.0475 6.22176 10.1135 6.39578 10.1101C6.5698 10.1067 6.73536 10.0344 6.85604 9.90894C6.97671 9.78351 7.04261 9.61528 7.03925 9.44125C7.03589 9.26723 6.96353 9.10167 6.8381 8.981C6.4208 8.57898 5.97268 8.20924 5.49935 7.875ZM12.9823 8.17863C12.945 8.10095 12.8927 8.03139 12.8285 7.97391C12.7643 7.91644 12.6894 7.87218 12.608 7.84366C12.5267 7.81514 12.4405 7.80292 12.3545 7.8077C12.2684 7.81248 12.1842 7.83416 12.1065 7.8715C12.0288 7.90884 11.9592 7.96112 11.9018 8.02535C11.8443 8.08958 11.8 8.1645 11.7715 8.24583C11.743 8.32716 11.7308 8.41332 11.7355 8.49937C11.7403 8.58543 11.762 8.6697 11.7993 8.74738C12.0502 9.26974 12.3403 9.77227 12.6673 10.2506C12.7655 10.3944 12.9168 10.4933 13.0878 10.5255C13.2589 10.5578 13.4358 10.5207 13.5795 10.4226C13.7233 10.3244 13.8222 10.1731 13.8544 10.0021C13.8867 9.83101 13.8496 9.65414 13.7515 9.51038C13.4618 9.08653 13.2047 8.64134 12.9823 8.17863ZM8.3326 10.7485C8.23235 10.61 8.08201 10.5161 7.91357 10.4867C7.74512 10.4574 7.57188 10.495 7.43071 10.5914C7.28954 10.6879 7.1916 10.8357 7.15773 11.0032C7.12385 11.1708 7.15673 11.345 7.24935 11.4887C7.53865 11.9127 7.79546 12.3578 8.0176 12.8205C8.09302 12.9774 8.22767 13.0979 8.39193 13.1555C8.55619 13.2131 8.7366 13.203 8.89347 13.1276C9.05035 13.0522 9.17084 12.9176 9.22844 12.7533C9.28603 12.589 9.27602 12.4086 9.2006 12.2517C8.9494 11.7296 8.65925 11.2271 8.3326 10.7485ZM15.0718 11.0731C15.0104 11.0103 14.937 10.9605 14.856 10.9266C14.775 10.8927 14.688 10.8755 14.6002 10.8758C14.5123 10.8762 14.4255 10.8941 14.3447 10.9287C14.264 10.9632 14.191 11.0136 14.13 11.0769C14.0691 11.1401 14.0215 11.215 13.9901 11.297C13.9586 11.379 13.9439 11.4664 13.9469 11.5542C13.9498 11.642 13.9704 11.7283 14.0073 11.808C14.0443 11.8877 14.0968 11.9591 14.1618 12.0181C14.5795 12.4201 15.027 12.7899 15.5006 13.1241C15.6429 13.2245 15.8192 13.2642 15.9907 13.2346C16.0757 13.22 16.1569 13.1887 16.2298 13.1426C16.3026 13.0966 16.3657 13.0366 16.4154 12.9662C16.4651 12.8957 16.5004 12.8162 16.5194 12.7321C16.5384 12.648 16.5406 12.561 16.5259 12.4761C16.5112 12.3911 16.48 12.3099 16.4339 12.237C16.3879 12.1642 16.3279 12.1011 16.2575 12.0514C15.8725 11.7801 15.47 11.4564 15.0718 11.0731ZM9.9846 14.4296C9.96494 14.3449 9.92863 14.2649 9.87779 14.1944C9.82695 14.1238 9.76259 14.064 9.68845 14.0186C9.61432 13.9731 9.53188 13.9428 9.44593 13.9295C9.35999 13.9162 9.27225 13.92 9.18782 13.9409C9.10339 13.9618 9.02395 13.9992 8.95412 14.0511C8.88429 14.1029 8.82547 14.1681 8.78106 14.2429C8.73666 14.3177 8.70756 14.4006 8.69546 14.4867C8.68337 14.5728 8.68851 14.6605 8.7106 14.7446C8.8436 15.2819 8.92322 15.7929 8.9661 16.2619C8.98188 16.4352 9.06588 16.5952 9.19961 16.7066C9.33335 16.8181 9.50587 16.8718 9.67922 16.856C9.85258 16.8402 10.0126 16.7562 10.124 16.6225C10.2354 16.4887 10.2891 16.3162 10.2733 16.1429C10.2206 15.5653 10.1241 14.9926 9.9846 14.4296Z" fill="white"/>
</g>
</svg>
