<svg width="21" height="21" viewBox="0 0 21 21" fill="none" xmlns="http://www.w3.org/2000/svg">
<g id="dashicons:games">
<path id="Vector" d="M17.4787 5.6863C16.769 4.5621 15.4679 4 14.0485 4H6.95151C5.53212 4 4.231 4.5621 3.5213 5.6863C0.800797 9.62098 0.209382 15.5792 2.10191 16.8158C3.99444 18.0525 8.25262 12.6563 10.5 12.6563C12.7474 12.6563 16.8873 18.0525 18.8981 16.8158C20.7906 15.5792 20.1992 9.62098 17.4787 5.6863ZM8.13434 9.62098H6.95151V10.7452H5.76868V9.62098H4.58585V8.49679H5.76868V7.37259H6.95151V8.49679H8.13434V9.62098ZM14.5216 10.1831C14.5216 10.7452 14.0485 11.1949 13.4571 11.1949C12.8657 11.1949 12.3925 10.7452 12.3925 10.1831C12.3925 9.62098 12.8657 9.17131 13.4571 9.17131C14.0485 9.17131 14.5216 9.62098 14.5216 10.1831ZM16.769 7.93469C16.769 8.49679 16.2959 8.94647 15.7044 8.94647C15.113 8.94647 14.6399 8.49679 14.6399 7.93469C14.6399 7.37259 15.113 6.92291 15.7044 6.92291C16.2959 6.92291 16.769 7.37259 16.769 7.93469Z" fill="#FDFFFF" fill-opacity="0.4"/>
<path id="Vector 1" d="M6.1001 7.8H6.6001V8.8H7.6001V9.3H6.6001V10.3H6.1001V9.3H5.1001V8.8H6.1001V7.8Z" fill="#D9D9D9"/>
</g>
</svg>
