<svg width="21" height="21" viewBox="0 0 21 21" fill="none" xmlns="http://www.w3.org/2000/svg">
<g id="solar:volleyball-2-bold-duotone" clip-path="url(#clip0_1_969)">
<path id="Vector" d="M4.9126 1.72759C3.40103 2.67098 2.16132 3.95164 1.30411 5.45527C0.446906 6.9589 -0.00112488 8.63873 2.12095e-06 10.3448C2.12095e-06 12.0197 0.423502 13.6003 1.1737 15H1.65C5.1205 15 8.3963 13.4928 10.527 10.9169L11 10.3448C10.1498 9.06559 9.63764 7.61351 9.50635 6.11001C9.37507 4.60651 9.62849 3.0953 10.2454 1.70276L11 5.56633e-06C9.70681 -0.00125729 8.42355 0.212371 7.2094 0.63104L6.8024 1.42242C5.57121 4.19415 5.24199 7.24707 5.8564 10.1948C5.88103 10.2961 5.88379 10.4009 5.86453 10.5032C5.84526 10.6055 5.80435 10.7031 5.74423 10.7902C5.68411 10.8773 5.606 10.9522 5.51454 11.0104C5.42307 11.0686 5.32011 11.109 5.21175 11.1291C5.1034 11.1492 4.99185 11.1486 4.88374 11.1274C4.77562 11.1062 4.67314 11.0648 4.58235 11.0056C4.49157 10.9465 4.41434 10.8708 4.35524 10.783C4.29614 10.6953 4.25638 10.5973 4.2383 10.4948C3.627 7.5682 3.85983 4.54103 4.9126 1.72759Z" fill="#797C7C"/>
<path id="Vector_2" opacity="0.7" d="M12.7387 4.11816C12.637 4.09762 12.5321 4.09644 12.4299 4.11469C12.3277 4.13294 12.2303 4.17026 12.1432 4.22453C12.0561 4.2788 11.981 4.34895 11.9223 4.43097C11.8635 4.51299 11.8222 4.60529 11.8007 4.70258C11.7792 4.79987 11.778 4.90025 11.7971 4.998C11.8162 5.09575 11.8552 5.18895 11.9119 5.27227C11.9686 5.35559 12.042 5.42741 12.1277 5.48363C12.2134 5.53984 12.3099 5.57935 12.4116 5.59989C15.1551 6.15591 17.6711 7.46125 19.6548 9.35771L19.6569 9.35973L20.9937 10.6598L21 10.6537C20.914 12.1792 20.4651 13.6657 19.6875 15L19.4332 14.6356C18.4593 13.2382 17.1399 12.0925 15.5919 11.3001C14.044 10.5078 12.3155 10.0933 10.5599 10.0935H10.465C9.6495 8.84537 9.15825 7.42856 9.03233 5.96158C8.90641 4.4946 9.14947 3.0201 9.7412 1.6614L10.465 0C15.6792 0 20.0103 3.61853 20.8628 8.37359L20.7805 8.29285L20.7763 8.28881C18.5756 6.18358 15.7834 4.73474 12.7387 4.11816Z" fill="#797C7C"/>
<path id="Vector_3" opacity="0.4" d="M14.2938 16.323C14.4684 16.208 14.5868 16.0332 14.6229 15.8371C14.659 15.6409 14.6098 15.4394 14.4862 15.277C14.3626 15.1146 14.1747 15.0044 13.9638 14.9709C13.7529 14.9373 13.5364 14.983 13.3617 15.098C10.5699 16.938 7.18677 18.043 3.86494 18.043H2.9716C2.17515 17.2967 1.50983 16.4386 1 15.5H1.46549C4.85719 15.5 8.05862 14.043 10.1409 11.553L10.6032 11H10.7021C14.3346 11 17.7263 12.689 19.7409 15.5L20 15.861C19.0687 17.419 17.7065 18.7171 16.0545 19.6207C14.4024 20.5243 12.5207 21.0005 10.6043 21C8.60736 21.0031 6.64936 20.4862 4.95179 19.508C8.279 19.296 11.56 18.123 14.2938 16.323Z" fill="#797C7C"/>
</g>
<defs>
<clipPath id="clip0_1_969">
<rect width="21" height="21" fill="white"/>
</clipPath>
</defs>
</svg>
