<svg width="18" height="17" viewBox="0 0 18 17" fill="none" xmlns="http://www.w3.org/2000/svg">
<g id="SVG" clip-path="url(#clip0_1_27)">
<path id="Vector" d="M6.20338 1.96569C6.90163 1.56212 7.79675 1.80163 8.201 2.50072L12.5848 10.0935C12.9864 10.7944 12.7475 11.6869 12.0493 12.0912L6.98563 15.0128C6.28738 15.417 5.39488 15.1782 4.99063 14.4799L0.606039 6.88578C0.202471 6.1849 0.441976 5.2924 1.14107 4.88815L6.20338 1.96569ZM4.18475 9.04878C4.00363 9.72865 4.40788 10.4085 5.09038 10.6133C5.77288 10.797 6.45013 10.3928 6.65488 9.71028L6.71788 9.47665C6.7205 9.46878 6.72313 9.45828 6.72575 9.44778L7.193 10.2537L6.87538 10.4374C6.6995 10.5372 6.64175 10.7603 6.7415 10.9362C6.84388 11.112 7.067 11.1698 7.24025 11.07L8.5055 10.3403C8.68138 10.2379 8.74175 10.0148 8.63938 9.8389C8.53963 9.66565 8.3165 9.60528 8.14063 9.70503L7.82563 9.88878L7.35838 9.0829C7.36888 9.08553 7.37938 9.08815 7.38988 9.09078L7.62088 9.15115C8.30338 9.3349 9.00425 8.93065 9.188 8.24815C9.36913 7.56565 8.96488 6.86478 8.28238 6.68103L5.55763 5.95915C5.28725 5.8804 4.988 6.05365 4.90925 6.34503L4.18475 9.04878Z" fill="#FDFFFF"/>
<path id="Vector_2" opacity="0.4" d="M8.91782 14.8681L12.4694 12.818C13.5693 12.1827 13.9473 10.7757 13.3121 9.67322L9.72107 3.4559C9.76832 3.45144 9.81294 3.44934 9.86019 3.44934H15.7402C16.5513 3.44934 17.2102 4.10743 17.2102 4.91934V13.7393C17.2102 14.5505 16.5513 15.2093 15.7402 15.2093H9.86019C9.50319 15.2093 9.17244 15.0807 8.91782 14.8681ZM15.6299 5.33147C15.2624 5.02172 14.7243 5.08209 14.3988 5.41547L14.2728 5.55459L14.1416 5.41547C13.8134 5.08209 13.2701 5.02172 12.9157 5.33147C12.5036 5.68584 12.4826 6.31322 12.8501 6.69384L14.1232 8.00634C14.2019 8.09034 14.3384 8.09034 14.4251 8.00634L15.6877 6.69384C16.0552 6.31322 16.0368 5.68584 15.6299 5.33147Z" fill="#FDFFFF"/>
</g>
<defs>
<clipPath id="clip0_1_27">
<rect width="16.8" height="16.8" fill="white" transform="translate(0.410004 0.0899658)"/>
</clipPath>
</defs>
</svg>
