<svg width="16" height="16" viewBox="0 0 16 16" fill="none" xmlns="http://www.w3.org/2000/svg">
<path d="M10.7719 8.54689L6.26875 12.7969C6.05078 13.0025 5.73125 13.0586 5.45625 12.9405C5.18125 12.8219 5.00313 12.55 5.00313 12.25V10H1.00063C0.447812 10 0 9.55314 0 9.00002V7.00002C0 6.44783 0.447812 6.00002 1.00063 6.00002H5.00375V3.75002C5.00375 3.4507 5.18209 3.1797 5.45719 3.06095C5.73228 2.9428 6.05188 2.99895 6.26969 3.20452L10.7728 7.45452C11.0719 7.73752 11.0719 8.26252 10.7719 8.54689Z" fill="white"/>
<path opacity="0.4" d="M13 1H11C10.4478 1 10 1.44781 10 2C10 2.55219 10.4478 3 11 3H13C13.5522 3 14 3.44781 14 4V12C14 12.5522 13.5522 13 13 13H11C10.4478 13 10 13.4478 10 14C10 14.5522 10.4478 15 11 15H13C14.6569 15 16 13.6569 16 12V4C16 2.34312 14.6562 1 13 1Z" fill="white"/>
</svg>
