<svg width="22" height="22" viewBox="0 0 22 22" fill="none" xmlns="http://www.w3.org/2000/svg">
<path d="M1.375 4.125C1.375 3.36445 1.98945 2.75 2.75 2.75H19.25C20.0105 2.75 20.625 3.36445 20.625 4.125C20.625 4.88555 20.0105 5.5 19.25 5.5H2.75C1.98945 5.5 1.375 4.88555 1.375 4.125ZM1.375 11C1.375 10.2395 1.98945 9.625 2.75 9.625H19.25C20.0105 9.625 20.625 10.2395 20.625 11C20.625 11.7605 20.0105 12.375 19.25 12.375H2.75C1.98945 12.375 1.375 11.7605 1.375 11ZM20.625 17.875C20.625 18.6355 20.0105 19.25 19.25 19.25H2.75C1.98945 19.25 1.375 18.6355 1.375 17.875C1.375 17.1145 1.98945 16.5 2.75 16.5H19.25C20.0105 16.5 20.625 17.1145 20.625 17.875Z" fill="#FDFFFF"/>
</svg>
