<svg width="16" height="16" viewBox="0 0 16 16" fill="none" xmlns="http://www.w3.org/2000/svg">
<g id="emojione-v1:soccer-ball" clip-path="url(#clip0_1_33)">
<path id="Vector" d="M14.3875 3.61452C16.8105 7.14202 15.9155 11.966 12.3878 14.387C8.86025 16.8103 4.03625 15.915 1.61275 12.387C-0.810746 8.85952 0.0850043 4.03552 3.61275 1.61202C7.14025 -0.810733 11.9643 0.0847666 14.3853 3.61202" fill="#797C7C"/>
<path id="Vector_2" d="M8.8235 10.6365L5.6145 10.9937L3.7 8.39396L4.9955 5.43646L8.205 5.07846L10.1193 7.67946L8.8235 10.6365ZM15.319 5.79996C15.0901 5.00027 14.7338 4.24265 14.264 3.55621C13.5871 2.57165 12.6902 1.75818 11.6445 1.18021L10.625 3.50921L12.5393 6.10971L15.3188 5.79971M4.62025 2.93371L5.61675 0.657715C4.09931 1.12353 2.76168 2.04443 1.785 3.29571L4.59325 2.98321C4.60275 2.96621 4.61025 2.94996 4.62025 2.93371ZM13.1585 10.724L11.8635 13.6817L12.3665 14.3647C12.3723 14.3597 12.3798 14.3572 12.3865 14.3522C13.8113 13.3742 14.798 12.0007 15.3173 10.4827L13.1573 10.7235M1.787 9.91471L0.510254 10.0572C0.926754 11.639 1.82975 13.0097 3.04075 14.023L3.701 12.5155L1.787 9.91471Z" fill="#D9D9D9"/>
</g>
<defs>
<clipPath id="clip0_1_33">
<rect width="16" height="16" fill="white"/>
</clipPath>
</defs>
</svg>
