<svg width="16" height="16" viewBox="0 0 16 16" fill="none" xmlns="http://www.w3.org/2000/svg">
<g opacity="0.6" clip-path="url(#clip0_1_69)">
<path d="M15.6334 13.8656L11.8928 10.125C11.4231 10.8219 10.8222 11.4231 10.125 11.8928L13.8656 15.6334C14.3538 16.1216 15.1453 16.1216 15.6334 15.6334C16.1209 15.1469 16.1209 14.3531 15.6334 13.8656Z" fill="#FDFFFF"/>
<path opacity="0.4" d="M6.47188 0C2.91001 0 0 2.91031 0 6.5C0 10.0897 2.91001 13 6.47188 13C10.0338 13 12.9719 10.0897 12.9719 6.5C12.9719 2.91031 10.0906 0 6.47188 0ZM6.47188 10.5C4.26626 10.5 2.47188 8.70563 2.47188 6.5C2.47188 4.29437 4.26626 2.5 6.47188 2.5C8.67751 2.5 10.4719 4.29437 10.4719 6.5C10.4719 8.70625 8.70626 10.5 6.47188 10.5Z" fill="#FDFFFF"/>
</g>
<defs>
<clipPath id="clip0_1_69">
<rect width="16" height="16" fill="white"/>
</clipPath>
</defs>
</svg>
