<svg width="20" height="20" viewBox="0 0 20 20" fill="none" xmlns="http://www.w3.org/2000/svg">
<g id="bxs:baseball">
<path id="Vector" d="M18.32 10.1967C18.3498 9.06997 18.15 7.94899 17.7326 6.902C17.3153 5.85502 16.6892 4.90393 15.8925 4.10667C15.0953 3.30998 14.1442 2.6839 13.0972 2.26656C12.0502 1.84923 10.9292 1.64938 9.80252 1.67917C9.91198 2.90505 9.71943 4.13908 9.24169 5.27334L7.70836 4.62334C8.07082 3.75918 8.22112 2.82081 8.14669 1.88667C6.61709 2.22932 5.21631 2.9995 4.10752 4.10751C2.99841 5.21725 2.22787 6.6196 1.88586 8.15084C2.60947 8.20682 3.3372 8.12885 4.03252 7.92084L4.51169 9.51751C3.59502 9.79251 2.63086 9.88667 1.68002 9.80417C1.65024 10.9307 1.85011 12.0516 2.26744 13.0984C2.68478 14.1453 3.31085 15.0962 4.10752 15.8933C4.90466 16.69 5.8556 17.316 6.90244 17.7334C7.94929 18.1507 9.07012 18.3506 10.1967 18.3208C10.1122 17.3673 10.2095 16.4064 10.4834 15.4892L12.08 15.9683C11.8716 16.6636 11.7936 17.3914 11.85 18.115C13.3815 17.773 14.7841 17.0025 15.8942 15.8933C17.0024 14.7843 17.7726 13.3833 18.115 11.8533C17.1809 11.7793 16.2426 11.9296 15.3784 12.2917L14.7284 10.7575C15.8617 10.2797 17.095 10.0871 18.32 10.1967ZM7.64169 7.64417C7.10426 8.18177 6.48836 8.6347 5.81502 8.98751L5.04252 7.51084C5.90807 7.05769 6.64615 6.39468 7.18919 5.58251L8.57502 6.51001C8.30169 6.91834 7.98752 7.30001 7.64169 7.64417ZM13.5367 13.5342C13.1172 13.9526 12.7639 14.4326 12.4892 14.9575L11.0125 14.185C11.5948 13.0727 12.4462 12.1239 13.4892 11.425L14.4167 12.8108C14.1004 13.0226 13.8057 13.2649 13.5367 13.5342Z" fill="#8F9394"/>
</g>
</svg>
