<svg width="20" height="20" viewBox="0 0 20 20" fill="none" xmlns="http://www.w3.org/2000/svg">
<g id="noto:basketball" clip-path="url(#clip0_1_1322)">
<path id="Vector" d="M3.48596 16.9094C3.48596 16.9094 6.48909 20.0687 11.6406 19.2672C16.7922 18.4672 18.8578 13.95 19.2828 11.375C19.8235 8.09531 18.325 5.84062 18.2453 5.71719C18.186 5.62656 3.48596 16.9094 3.48596 16.9094Z" fill="#797C7C"/>
<path id="Vector_2" d="M3.25151 3.36092C0.165568 6.60936 -0.357869 11.3547 1.96244 15.0219C3.04213 16.7281 3.70307 17.075 3.70307 17.075C3.70307 17.075 8.7515 20.3125 14.4249 15.4047C19.2843 11.2015 18.2546 5.72811 18.2546 5.72811C18.2546 5.72811 17.6484 4.40311 16.3734 3.1453C13.5437 0.351549 7.21869 -0.817201 3.25151 3.36092Z" fill="#797C7C"/>
<path id="Vector_3" d="M15.6203 2.50625C15.575 2.50938 11.0609 2.83437 6.28589 9.25313C3.27027 13.3063 3.4187 16.1672 3.53589 16.9516C3.53589 16.9516 3.3062 16.7625 3.1437 16.5875C2.9812 16.4141 2.85464 16.2594 2.85464 16.2594C2.84214 14.8859 3.25308 12.2828 5.78589 8.87969C9.64058 3.69375 13.3265 2.34219 14.8718 1.99219C14.8718 1.99219 15.0609 2.10312 15.2437 2.21719C15.3781 2.30156 15.6203 2.50625 15.6203 2.50625Z" fill="#D9D9D9"/>
<path id="Vector_4" d="M2.43284 4.34064C2.9344 5.16407 4.14534 6.94376 6.24221 8.80157C8.88127 11.1422 11.625 13.0453 14.3938 14.4563C15.7016 15.1234 16.7063 15.5141 17.4172 15.7438C17.4172 15.7438 17.3141 15.9016 17.2172 16.0313C17.1203 16.1609 17.0141 16.2703 17.0141 16.2703C16.2906 16.025 15.325 15.6344 14.1078 15.0125C11.2922 13.5766 8.50471 11.6438 5.82659 9.26876C3.84221 7.50939 2.63909 5.84376 2.04846 4.91095C2.04846 4.91095 2.13127 4.74689 2.24065 4.60157C2.35002 4.45626 2.43284 4.34064 2.43284 4.34064Z" fill="#D9D9D9"/>
<path id="Vector_5" d="M8.30933 0.7453C8.0859 0.999988 7.76715 1.41405 7.39527 2.04061C7.05465 2.61249 6.87965 3.18124 6.67652 3.84061C6.34371 4.92186 5.96715 6.14686 4.73433 7.71249C3.02183 9.88749 1.33902 10.6141 0.554646 10.8469C0.554646 10.8469 0.532771 10.6437 0.524958 10.5015C0.517146 10.3594 0.520271 10.1984 0.520271 10.1984C1.26558 9.94374 2.74058 9.23124 4.24215 7.32655C5.40308 5.85155 5.7609 4.68593 6.07808 3.6578C6.28433 2.98905 6.47808 2.3578 6.85777 1.72186C7.03746 1.4203 7.20621 1.16249 7.3609 0.946863C7.3609 0.946863 7.53433 0.88905 7.77183 0.835925C7.95621 0.792175 8.30933 0.7453 8.30933 0.7453ZM10.7375 19.3766C10.214 18.9031 9.13277 17.8219 8.34371 16.3172C7.47027 14.6531 7.0609 12.15 8.22652 10.5859C9.55777 8.80155 12.0437 8.55936 14.3031 8.55936H14.3125C17.189 8.56093 19.3531 9.16249 19.3781 9.1703C19.3781 9.1703 19.3609 8.95936 19.3375 8.77967C19.3171 8.62499 19.2953 8.48124 19.2953 8.48124C19.1859 8.45311 17.2734 7.93593 14.3125 7.93436H14.3031C11.889 7.93436 9.22027 8.20624 7.72496 10.2125C6.76246 11.5031 6.40933 13.9812 7.79058 16.6078C8.44058 17.8453 9.25933 18.8 9.85777 19.4016C9.85777 19.4016 10.0328 19.4078 10.2562 19.4047C10.4765 19.4016 10.7375 19.3766 10.7375 19.3766Z" fill="#D9D9D9"/>
</g>
<defs>
<clipPath id="clip0_1_1322">
<rect width="20" height="20" fill="white"/>
</clipPath>
</defs>
</svg>
