<svg width="20" height="20" viewBox="0 0 20 20" fill="none" xmlns="http://www.w3.org/2000/svg">
<g id="noto:boxing-glove">
<path id="Vector" d="M6.38748 13.7141C6.38748 13.7141 6.32342 18.1453 6.45154 18.3234C6.58123 18.5016 7.74529 19.3266 9.97811 19.3578C12.2109 19.3891 13.4719 18.4516 13.5047 18.2422C13.5375 18.0312 13.6172 13.4062 13.6172 13.4062C13.6172 13.4062 14.814 12.775 15.6547 11.3516C16.4953 9.92812 17.0781 7.9875 17.0453 6.40156C17.0156 4.97812 16.4797 4.75156 16.2047 4.55781C15.9297 4.36406 15.6547 4.39531 15.6547 4.39531C15.6547 4.39531 15.4984 2.35312 14.6359 1.51562C13.5375 0.451561 11.8547 0.515624 9.99529 0.515624C8.10311 0.515624 6.21561 0.396874 4.89998 2.22969C3.75154 3.83125 4.02654 6.3375 4.09061 7.58281C4.15467 8.82812 4.61873 10.8531 4.96404 11.6422C5.64373 13.1969 6.38748 13.7141 6.38748 13.7141Z" fill="#8F9394"/>
<g id="Vector_2">
<path d="M7.45787 16.7781C7.44068 17.5187 7.7188 18.0312 10.0141 18.0234C12.3094 18.0156 12.4704 17.5937 12.4954 16.8375C12.5157 16.2469 12.2594 15.8703 11.3516 15.9031C10.7047 15.9266 9.22974 15.9094 8.41568 15.8859C7.97037 15.8734 7.47349 16.0219 7.45787 16.7781Z" fill="#FFC402"/>
<path d="M7.45787 16.7781C7.44068 17.5187 7.7188 18.0312 10.0141 18.0234C12.3094 18.0156 12.4704 17.5937 12.4954 16.8375C12.5157 16.2469 12.2594 15.8703 11.3516 15.9031C10.7047 15.9266 9.22974 15.9094 8.41568 15.8859C7.97037 15.8734 7.47349 16.0219 7.45787 16.7781Z" fill="url(#paint0_linear_1_1386)"/>
</g>
<path id="Vector_3" d="M6.38755 13.7141C6.38755 13.7141 7.87974 14.2047 9.96099 14.2266C12.0875 14.2484 13.6172 13.4078 13.6172 13.4078L13.5875 14.5781C13.5875 14.5781 12.2282 15.2359 9.98286 15.2359C7.73755 15.2359 6.37817 14.6984 6.37817 14.6984L6.38755 13.7141ZM12.3938 4.08906C12.711 4.47813 13.2375 4.15469 13.5766 4.06719C13.9157 3.97969 14.5407 3.99063 14.5625 4.04531C14.5844 4.1 13.7625 4.26406 13.325 5.18438C12.986 5.89531 13.0797 6.76875 13.1125 7.06406C13.1594 7.49063 13.3907 8.10938 13.95 8.10938C14.6297 8.10938 14.6954 7.50625 14.7172 7.2C14.7391 6.89375 14.5375 5.4875 14.9235 4.88281C15.2594 4.35469 15.6563 4.39531 15.6563 4.39531C15.6563 4.39531 15.6266 4.09844 15.5938 3.90156C15.561 3.70469 15.5188 3.49375 15.5188 3.49375C15.5188 3.49375 14.9157 3.17813 14.4657 2.99219C14.0157 2.80625 13.1829 2.73125 12.6563 3.13594C12.2313 3.46406 12.2954 3.96875 12.3938 4.08906Z" fill="#646767"/>
</g>
<defs>
<linearGradient id="paint0_linear_1_1386" x1="12.4965" y1="17.2949" x2="7.29997" y2="17.2604" gradientUnits="userSpaceOnUse">
<stop stop-color="#6C1D79"/>
<stop offset="1" stop-color="#FF003D"/>
</linearGradient>
</defs>
</svg>
