<svg width="20" height="20" viewBox="0 0 20 20" fill="none" xmlns="http://www.w3.org/2000/svg">
<g id="dashicons:games">
<path id="Vector" d="M16.6464 5.4155C15.9705 4.34484 14.7313 3.80951 13.3795 3.80951H6.6205C5.26869 3.80951 4.02954 4.34484 3.35364 5.4155C0.762675 9.16283 0.199423 14.8373 2.00183 16.0151C3.80424 17.1928 7.85965 12.0536 10 12.0536C12.1404 12.0536 16.0831 17.1928 17.9982 16.0151C19.8006 14.8373 19.2373 9.16283 16.6464 5.4155ZM7.747 9.16283H6.6205V10.2335H5.49399V9.16283H4.36749V8.09216H5.49399V7.0215H6.6205V8.09216H7.747V9.16283ZM13.8301 9.69816C13.8301 10.2335 13.3795 10.6618 12.8163 10.6618C12.253 10.6618 11.8024 10.2335 11.8024 9.69816C11.8024 9.16283 12.253 8.73456 12.8163 8.73456C13.3795 8.73456 13.8301 9.16283 13.8301 9.69816ZM15.9705 7.55683C15.9705 8.09216 15.5199 8.52043 14.9566 8.52043C14.3934 8.52043 13.9428 8.09216 13.9428 7.55683C13.9428 7.0215 14.3934 6.59323 14.9566 6.59323C15.5199 6.59323 15.9705 7.0215 15.9705 7.55683Z" fill="#FDFFFF" fill-opacity="0.4"/>
<path id="Vector 1" d="M5.80956 7.42856H6.28575V8.38094H7.23813V8.85713H6.28575V9.80951H5.80956V8.85713H4.85718V8.38094H5.80956V7.42856Z" fill="#D9D9D9"/>
</g>
</svg>
