<svg width="20" height="20" viewBox="0 0 20 20" fill="none" xmlns="http://www.w3.org/2000/svg">
<g id="game-icons:f1-car">
<path id="Vector" d="M14.3525 11.7805C14.3524 12.0216 14.4157 12.2573 14.5344 12.4579C14.6531 12.6584 14.8218 12.8147 15.0193 12.9071C15.2167 12.9994 15.434 13.0236 15.6436 12.9766C15.8533 12.9297 16.0458 12.8136 16.197 12.6431C16.3482 12.4727 16.4511 12.2554 16.4928 12.0189C16.5346 11.7825 16.5132 11.5373 16.4314 11.3145C16.3497 11.0918 16.2112 10.9013 16.0334 10.7674C15.8557 10.6334 15.6468 10.5619 15.4331 10.5619C15.1466 10.5621 14.872 10.6906 14.6694 10.9191C14.4668 11.1475 14.3529 11.4573 14.3525 11.7805ZM3.3379 10.5619C3.55152 10.562 3.7603 10.6335 3.93787 10.7675C4.11544 10.9014 4.25382 11.0918 4.3355 11.3145C4.41719 11.5371 4.43852 11.7821 4.39679 12.0185C4.35506 12.2548 4.25216 12.4719 4.10108 12.6423C3.95001 12.8127 3.75754 12.9287 3.54803 12.9756C3.33852 13.0226 3.12136 12.9985 2.92402 12.9062C2.72668 12.814 2.55801 12.6578 2.43935 12.4574C2.32068 12.257 2.25734 12.0214 2.25734 11.7805C2.25769 11.4574 2.3716 11.1477 2.57409 10.9192C2.77657 10.6908 3.05111 10.5623 3.33747 10.5619H3.3379ZM0 7.04912H2.9278L2.33527 9.46955L6.34058 7H8.83781L8.89266 8.70334L10.2858 9.42829L10.7969 8.71906H11.477L11.6145 9.50491C17.6033 8.8664 20 10.9376 20 10.9376C20 10.9376 19.6726 11.1832 18.8711 11.3497C18.7022 11.5123 18.7118 12.0589 18.7118 12.0589H19.7653V12.8448H17.5015V11.4951C17.4214 11.4985 17.3077 11.5152 17.1941 11.5182C17.1605 11.2307 17.072 10.955 16.9347 10.7098C16.7975 10.4647 16.6147 10.2561 16.3991 10.0984C16.1834 9.94075 15.94 9.83771 15.6856 9.79643C15.4313 9.75515 15.172 9.77662 14.9257 9.85935C14.6794 9.94208 14.4519 10.0841 14.259 10.2756C14.0661 10.4672 13.9122 10.7036 13.8082 10.9687C13.7041 11.2338 13.6522 11.5212 13.6562 11.8111C13.6601 12.101 13.7197 12.3865 13.8309 12.6478H4.93916C5.05446 12.3765 5.11413 12.0793 5.11374 11.7784C5.11334 11.4775 5.0529 11.1806 4.93689 10.9096C4.82089 10.6386 4.65229 10.4006 4.44361 10.2132C4.23493 10.0258 3.99153 9.89377 3.73145 9.82696C3.47138 9.76016 3.20131 9.76028 2.94128 9.82731C2.68126 9.89433 2.43794 10.0266 2.22939 10.2141C2.02084 10.4017 1.85241 10.6399 1.73658 10.911C1.62076 11.182 1.56052 11.479 1.56033 11.78C1.56033 11.8409 1.56294 11.9008 1.56773 11.9602H0.00043537L0 7.04912Z" fill="#8F9394"/>
</g>
</svg>
