<svg width="20" height="20" viewBox="0 0 20 20" fill="none" xmlns="http://www.w3.org/2000/svg">
<g id="emojione-v1:soccer-ball" clip-path="url(#clip0_1_1313)">
<path id="Vector" d="M17.9844 4.51812C21.0132 8.92749 19.8944 14.9575 15.4847 17.9837C11.0754 21.0128 5.04537 19.8937 2.016 15.4837C-1.01338 11.0744 0.106309 5.04437 4.516 2.01499C8.92537 -1.01345 14.9554 0.105928 17.9816 4.51499" fill="#797C7C"/>
<path id="Vector_2" d="M11.0294 13.2956L7.01813 13.7422L4.62501 10.4925L6.24438 6.79561L10.2563 6.34811L12.6491 9.59936L11.0294 13.2956ZM19.1488 7.24999C18.8626 6.25036 18.4173 5.30335 17.83 4.4453C16.9838 3.21459 15.8628 2.19775 14.5556 1.4753L13.2813 4.38655L15.6741 7.63717L19.1484 7.24967M5.77532 3.66717L7.02094 0.822174C5.12414 1.40445 3.45211 2.55557 2.23126 4.11967L5.74157 3.72905C5.75344 3.7078 5.76282 3.68749 5.77532 3.66717ZM16.4481 13.405L14.8294 17.1022L15.4581 17.9559C15.4653 17.9497 15.4747 17.9465 15.4831 17.9403C17.2641 16.7178 18.4975 15.0009 19.1466 13.1034L16.4466 13.4044M2.23375 12.3934L0.637817 12.5715C1.15844 14.5487 2.28719 16.2622 3.80094 17.5287L4.62626 15.6444L2.23375 12.3934Z" fill="#D9D9D9"/>
</g>
<defs>
<clipPath id="clip0_1_1313">
<rect width="20" height="20" fill="white"/>
</clipPath>
</defs>
</svg>
