<svg width="20" height="20" viewBox="0 0 20 20" fill="none" xmlns="http://www.w3.org/2000/svg">
<g id="streamline:target-solid" clip-path="url(#clip0_1_1378)">
<path id="Vector" fill-rule="evenodd" clip-rule="evenodd" d="M16.4072 0.541423C16.3767 0.418608 16.3142 0.306091 16.226 0.215385C16.1377 0.124678 16.027 0.0590368 15.9051 0.0251771C15.7831 -0.00868251 15.6544 -0.00954536 15.532 0.0226769C15.4097 0.0548991 15.2981 0.11905 15.2086 0.208566L12.3515 3.06571C12.2644 3.15303 12.2013 3.26142 12.1685 3.38034C12.1357 3.49926 12.1343 3.62464 12.1643 3.74428L12.6786 5.80714C12.6719 5.81371 12.6652 5.82038 12.6586 5.82714L9.24292 9.24285C9.05366 9.44596 8.95063 9.7146 8.95552 9.99217C8.96042 10.2697 9.07287 10.5346 9.26917 10.7309C9.46548 10.9272 9.73031 11.0396 10.0079 11.0445C10.2855 11.0494 10.5541 10.9464 10.7572 10.7571L14.1758 7.34285C14.1825 7.3358 14.1892 7.32865 14.1958 7.32142L16.2572 7.83714C16.3768 7.86719 16.5022 7.86575 16.6211 7.83296C16.7401 7.80016 16.8485 7.73713 16.9358 7.64999L19.7929 4.79285C19.8828 4.70345 19.9473 4.59174 19.9797 4.46918C20.0122 4.34663 20.0114 4.21765 19.9775 4.09548C19.9436 3.97332 19.8778 3.86238 19.7869 3.77404C19.696 3.68571 19.5832 3.62317 19.4601 3.59285L17.0186 2.98428L16.4072 0.541423ZM10.4529 1.08428C10.4725 1.36767 10.3788 1.64725 10.1924 1.86156C10.0059 2.07587 9.74201 2.20736 9.45863 2.22714C7.96606 2.33057 6.53455 2.86033 5.33421 3.75344C4.13386 4.64656 3.21515 5.8655 2.68722 7.26542C2.1593 8.66534 2.04435 10.1874 2.35606 11.6507C2.66776 13.114 3.393 14.4571 4.4456 15.5204C5.4982 16.5836 6.83392 17.3224 8.29403 17.6488C9.75415 17.9752 11.2773 17.8756 12.6824 17.3618C14.0876 16.848 15.3157 15.9416 16.2209 14.7503C17.126 13.559 17.6702 12.1329 17.7886 10.6414C17.8112 10.358 17.9454 10.0952 18.1617 9.91072C18.378 9.72627 18.6588 9.63531 18.9422 9.65785C19.2256 9.6804 19.4884 9.8146 19.6729 10.0309C19.8574 10.2473 19.9483 10.528 19.9258 10.8114C19.7746 12.7117 19.0811 14.5287 17.9276 16.0465C16.7742 17.5642 15.2093 18.719 13.4189 19.3736C11.6285 20.0281 9.6878 20.155 7.82741 19.739C5.96703 19.3231 4.26515 18.3818 2.92397 17.0271C1.58278 15.6724 0.658674 13.9611 0.261433 12.0967C-0.135809 10.2322 0.0105144 8.29288 0.683018 6.50913C1.35552 4.72538 2.52594 3.17216 4.05521 2.03402C5.58448 0.895881 7.40833 0.220654 9.31006 0.0885656C9.59345 0.0689389 9.87303 0.162652 10.0873 0.349102C10.3016 0.535552 10.4331 0.800905 10.4529 1.08428ZM9.49292 5.79714C9.54425 5.92817 9.56927 6.06804 9.56654 6.20875C9.56381 6.34946 9.53338 6.48825 9.477 6.6172C9.42062 6.74615 9.33939 6.86272 9.23794 6.96027C9.1365 7.05782 9.01683 7.13442 8.88577 7.18571C8.41726 7.36948 8.00194 7.66712 7.67733 8.0517C7.35273 8.43629 7.12908 8.8957 7.0266 9.38842C6.92412 9.88114 6.94604 10.3916 7.09038 10.8738C7.23472 11.3559 7.49693 11.7944 7.85331 12.1498C8.20969 12.5051 8.649 12.766 9.13154 12.909C9.61408 13.0519 10.1246 13.0724 10.6171 12.9684C11.1095 12.8645 11.5682 12.6395 11.9519 12.3138C12.3355 11.9881 12.6319 11.5719 12.8143 11.1029C12.8654 10.9717 12.9417 10.8519 13.0391 10.7503C13.1364 10.6487 13.2528 10.5672 13.3816 10.5106C13.5104 10.4539 13.6491 10.4232 13.7898 10.4202C13.9305 10.4171 14.0704 10.4418 14.2015 10.4929C14.3326 10.5439 14.4524 10.6202 14.554 10.7176C14.6557 10.8149 14.7371 10.9313 14.7938 11.0601C14.8504 11.1889 14.8811 11.3276 14.8842 11.4683C14.8872 11.609 14.8625 11.7489 14.8115 11.88C14.4999 12.681 13.9936 13.3917 13.3384 13.9478C12.6832 14.504 11.8997 14.8881 11.0587 15.0654C10.2178 15.2427 9.34591 15.2076 8.52192 14.9633C7.69794 14.7191 6.94782 14.2733 6.33939 13.6663C5.73097 13.0593 5.28341 12.3102 5.03719 11.4868C4.79097 10.6634 4.75385 9.79156 4.92918 8.9502C5.10452 8.10884 5.48678 7.32444 6.0414 6.66791C6.59603 6.01139 7.30553 5.50344 8.10577 5.18999C8.37025 5.08676 8.66488 5.09272 8.92497 5.20656C9.18505 5.32039 9.38932 5.5328 9.49292 5.79714Z" fill="#8F9394"/>
</g>
<defs>
<clipPath id="clip0_1_1378">
<rect width="20" height="20" fill="white"/>
</clipPath>
</defs>
</svg>
