<svg width="20" height="20" viewBox="0 0 20 20" fill="none" xmlns="http://www.w3.org/2000/svg">
<g id="solar:tennis-2-bold-duotone">
<path id="Vector" d="M2.78329 14.1667C5.08329 18.1525 10.18 19.5167 14.1666 17.2167C15.7297 16.3174 16.9571 14.9334 17.6633 13.2742C18.1727 12.0845 18.3975 10.7923 18.32 9.50051C18.2425 8.20867 17.8647 6.95273 17.2166 5.8325C16.5704 4.71142 15.6717 3.75649 14.5918 3.0436C13.5119 2.33071 12.2806 1.87951 10.9958 1.72583C9.20585 1.50769 7.39357 1.87863 5.83329 2.7825C1.84745 5.08417 0.481621 10.1808 2.78329 14.1667Z" fill="#797C7C"/>
<path id="Vector_2" d="M11.6167 1.82501C11.2044 1.74314 10.7866 1.69244 10.3667 1.67334L10.3392 1.80501C10.2991 2.00813 10.2669 2.21273 10.2425 2.41834C10.2328 2.49987 10.2392 2.58252 10.2614 2.66157C10.2836 2.74062 10.3212 2.81452 10.3719 2.87906C10.4227 2.9436 10.4857 2.9975 10.5573 3.0377C10.6289 3.0779 10.7077 3.1036 10.7892 3.11334C10.8707 3.12308 10.9534 3.11667 11.0324 3.09446C11.1115 3.07226 11.1854 3.03471 11.2499 2.98395C11.3144 2.93318 11.3684 2.87021 11.4086 2.79861C11.4488 2.72701 11.4745 2.6482 11.4842 2.56667C11.5099 2.3495 11.5461 2.1337 11.5925 1.92001L11.5992 1.89084L11.6009 1.88667L11.6167 1.82501ZM2.11169 7.31251C2.2471 6.91454 2.41229 6.52733 2.60586 6.15417C2.84569 6.23144 3.08179 6.31986 3.31336 6.41917C3.45967 6.48826 3.57348 6.61139 3.63086 6.76267C3.68825 6.91395 3.68473 7.08159 3.62104 7.23033C3.55736 7.37907 3.43848 7.49732 3.2894 7.5602C3.14032 7.62308 2.97266 7.6257 2.82169 7.56751C2.61136 7.47763 2.39664 7.39836 2.17836 7.33001L2.17419 7.32917L2.11169 7.31251ZM9.63336 18.3258C9.21349 18.3071 8.79564 18.2567 8.38336 18.175L8.40003 18.1133L8.40086 18.1083C8.41474 18.0561 8.42642 18.0033 8.43586 17.95C8.45919 17.8333 8.49003 17.6583 8.51669 17.4325C8.53636 17.2679 8.62064 17.1178 8.75098 17.0152C8.88131 16.9127 9.04704 16.8662 9.21169 16.8858C9.37635 16.9055 9.52645 16.9898 9.62897 17.1201C9.73149 17.2505 9.77803 17.4162 9.75836 17.5808C9.7283 17.831 9.68659 18.0796 9.63336 18.3258ZM17.8884 12.6867C17.753 13.0847 17.5878 13.4719 17.3942 13.845C17.1547 13.7677 16.9189 13.6792 16.6875 13.58C16.6112 13.5483 16.5419 13.5018 16.4837 13.4432C16.4255 13.3845 16.3794 13.3149 16.3483 13.2384C16.3171 13.1618 16.3015 13.0799 16.3022 12.9972C16.303 12.9146 16.3201 12.8329 16.3526 12.7569C16.3851 12.681 16.4323 12.6122 16.4916 12.5546C16.5509 12.497 16.621 12.4517 16.6978 12.4214C16.7747 12.3911 16.8568 12.3763 16.9395 12.3779C17.0221 12.3795 17.1036 12.3975 17.1792 12.4308C17.3801 12.517 17.5851 12.5935 17.7934 12.66L17.8225 12.6683L17.8259 12.67L17.8884 12.6867ZM11.4617 4.51167C11.4543 4.42993 11.4308 4.35044 11.3926 4.27777C11.3545 4.20509 11.3024 4.14064 11.2393 4.0881C11.1762 4.03555 11.1034 3.99595 11.0251 3.97154C10.9467 3.94713 10.8643 3.9384 10.7825 3.94584C10.7008 3.95328 10.6213 3.97675 10.5486 4.01491C10.4759 4.05307 10.4115 4.10517 10.3589 4.16824C10.3064 4.2313 10.2668 4.3041 10.2424 4.38247C10.218 4.46085 10.2093 4.54326 10.2167 4.62501C10.2625 5.12917 10.3484 5.67834 10.4917 6.25667C10.5316 6.41757 10.6338 6.55603 10.7757 6.6416C10.9177 6.72716 11.0879 6.75282 11.2488 6.71292C11.4097 6.67303 11.5481 6.57086 11.6337 6.42887C11.7193 6.28689 11.7449 6.11674 11.705 5.95584C11.5874 5.48132 11.5061 4.99854 11.4617 4.51167ZM5.23753 7.50001C5.17061 7.45045 5.09447 7.41477 5.01357 7.39505C4.93268 7.37533 4.84866 7.37198 4.76644 7.38518C4.68423 7.39839 4.60549 7.42789 4.53484 7.47195C4.46419 7.51601 4.40305 7.57375 4.35502 7.64176C4.30699 7.70978 4.27304 7.78671 4.25516 7.86803C4.23727 7.94936 4.23582 8.03343 4.25088 8.11532C4.26594 8.19721 4.29721 8.27527 4.34286 8.34491C4.38851 8.41455 4.44761 8.47436 4.51669 8.52084C4.88336 8.77917 5.26669 9.08751 5.64586 9.45417C5.76532 9.5691 5.92554 9.63187 6.09127 9.62866C6.25701 9.62546 6.41468 9.55655 6.52961 9.43709C6.64454 9.31763 6.7073 9.15741 6.7041 8.99168C6.7009 8.82594 6.63199 8.66827 6.51253 8.55334C6.1151 8.17046 5.68832 7.81833 5.23753 7.50001ZM12.3642 7.78917C12.3286 7.7152 12.2788 7.64895 12.2177 7.59421C12.1565 7.53947 12.0851 7.49732 12.0077 7.47016C11.9302 7.443 11.8482 7.43136 11.7662 7.43591C11.6843 7.44046 11.604 7.46111 11.53 7.49667C11.456 7.53224 11.3898 7.58203 11.3351 7.6432C11.2803 7.70437 11.2382 7.77572 11.211 7.85318C11.1839 7.93064 11.1722 8.01269 11.1768 8.09465C11.1813 8.1766 11.202 8.25686 11.2375 8.33084C11.4764 8.82833 11.7527 9.30693 12.0642 9.76251C12.1577 9.89943 12.3017 9.9936 12.4647 10.0243C12.6276 10.055 12.796 10.0197 12.9329 9.92626C13.0699 9.83277 13.164 9.68872 13.1947 9.5258C13.2255 9.36287 13.1902 9.19443 13.0967 9.05751C12.8208 8.65385 12.576 8.22985 12.3642 7.78917ZM7.93586 10.2367C7.84039 10.1048 7.6972 10.0153 7.53678 9.98737C7.37636 9.95943 7.21136 9.99521 7.07692 10.0871C6.94247 10.179 6.84919 10.3197 6.81694 10.4793C6.78468 10.6389 6.81598 10.8048 6.90419 10.9417C7.17972 11.3454 7.4243 11.7694 7.63586 12.21C7.70769 12.3594 7.83593 12.4742 7.99236 12.529C8.1488 12.5839 8.32062 12.5743 8.47003 12.5025C8.61943 12.4307 8.73418 12.3024 8.78904 12.146C8.84389 11.9896 8.83436 11.8177 8.76253 11.6683C8.52329 11.171 8.24696 10.6925 7.93586 10.2367ZM14.3542 10.5458C14.2957 10.486 14.2258 10.4386 14.1486 10.4063C14.0715 10.3741 13.9886 10.3576 13.905 10.3579C13.8213 10.3583 13.7386 10.3754 13.6617 10.4083C13.5848 10.4411 13.5153 10.4891 13.4572 10.5494C13.3992 10.6096 13.3539 10.6809 13.3239 10.759C13.294 10.8371 13.28 10.9204 13.2828 11.004C13.2856 11.0876 13.3052 11.1698 13.3404 11.2457C13.3755 11.3216 13.4256 11.3896 13.4875 11.4458C13.8853 11.8287 14.3115 12.1808 14.7625 12.4992C14.898 12.5948 15.0659 12.6326 15.2293 12.6044C15.3102 12.5904 15.3876 12.5607 15.457 12.5168C15.5264 12.4729 15.5864 12.4158 15.6338 12.3488C15.6811 12.2817 15.7148 12.2059 15.7328 12.1258C15.7509 12.0457 15.753 11.9629 15.739 11.882C15.725 11.8011 15.6953 11.7237 15.6514 11.6543C15.6075 11.5849 15.5504 11.5248 15.4834 11.4775C15.1167 11.2192 14.7334 10.9108 14.3542 10.5458ZM9.50919 13.7425C9.49047 13.6618 9.45589 13.5857 9.40747 13.5185C9.35906 13.4512 9.29776 13.3943 9.22715 13.351C9.15654 13.3077 9.07803 13.2789 8.99618 13.2662C8.91433 13.2535 8.83077 13.2572 8.75036 13.2771C8.66995 13.2969 8.59429 13.3326 8.52779 13.382C8.46128 13.4314 8.40526 13.4935 8.36297 13.5647C8.32068 13.6359 8.29297 13.7148 8.28145 13.7969C8.26993 13.8789 8.27483 13.9624 8.29586 14.0425C8.42253 14.5542 8.49836 15.0408 8.53919 15.4875C8.55422 15.6526 8.63422 15.805 8.76159 15.9111C8.88896 16.0172 9.05326 16.0684 9.21836 16.0533C9.38346 16.0383 9.53582 15.9583 9.64194 15.8309C9.74805 15.7036 9.79922 15.5393 9.78419 15.3742C9.734 14.8241 9.64207 14.2786 9.50919 13.7425Z" fill="white"/>
</g>
</svg>
