<svg width="20" height="20" viewBox="0 0 20 20" fill="none" xmlns="http://www.w3.org/2000/svg">
<g id="solar:volleyball-2-bold-duotone" clip-path="url(#clip0_1_1343)">
<path id="Vector" d="M4.67867 1.64532C3.23907 2.54379 2.0584 3.76347 1.24201 5.1955C0.425625 6.62753 -0.00107132 8.22736 2.01995e-06 9.85222C2.01995e-06 11.4473 0.403335 12.9527 1.11781 14.2857H1.57143C4.87667 14.2857 7.99648 12.8502 10.0257 10.397L10.4762 9.85222C9.66647 8.6339 9.1787 7.25096 9.05367 5.81905C8.92864 4.38715 9.16999 2.9479 9.75752 1.62168L10.4762 5.30127e-06C9.24458 -0.00119742 8.02243 0.202258 6.8661 0.60099L6.47848 1.35468C5.30592 3.99443 4.99237 6.90197 5.57752 9.70936C5.60098 9.80579 5.60361 9.90566 5.58526 10.0031C5.56691 10.1005 5.52795 10.1934 5.4707 10.2764C5.41344 10.3594 5.33905 10.4307 5.25194 10.4861C5.16483 10.5416 5.06677 10.58 4.96357 10.5991C4.86038 10.6182 4.75415 10.6177 4.65118 10.5975C4.54821 10.5773 4.45061 10.5379 4.36415 10.4815C4.27769 10.4252 4.20413 10.3531 4.14785 10.2696C4.09156 10.186 4.05369 10.0927 4.03648 9.99508C3.45429 7.20781 3.67603 4.32479 4.67867 1.64532Z" fill="#797C7C"/>
<path id="Vector_2" opacity="0.7" d="M12.1321 3.92206C12.0352 3.90249 11.9353 3.90137 11.838 3.91875C11.7407 3.93613 11.6479 3.97168 11.5649 4.02336C11.482 4.07504 11.4105 4.14185 11.3545 4.21997C11.2986 4.29809 11.2592 4.38599 11.2388 4.47864C11.2183 4.5713 11.2171 4.66691 11.2353 4.76C11.2535 4.8531 11.2906 4.94185 11.3447 5.02121C11.3987 5.10057 11.4685 5.16896 11.5502 5.2225C11.6318 5.27604 11.7237 5.31366 11.8206 5.33323C14.4334 5.86277 16.8296 7.10596 18.7188 8.91211L18.7208 8.91403L19.994 10.1522L20 10.1464C19.9181 11.5992 19.4905 13.0149 18.75 14.2857L18.5078 13.9387C17.5803 12.6078 16.3237 11.5166 14.8495 10.762C13.3752 10.0074 11.7291 9.61266 10.0571 9.61289H9.96664C9.18998 8.42416 8.72213 7.07482 8.6022 5.6777C8.48228 4.28057 8.71377 2.87629 9.27732 1.58228L9.96664 0C14.9326 0 19.0574 3.44622 19.8694 7.97485L19.791 7.89795L19.787 7.8941C17.691 5.88912 15.0318 4.50927 12.1321 3.92206Z" fill="#797C7C"/>
<path id="Vector_3" opacity="0.4" d="M13.6131 15.5457C13.7794 15.4362 13.8922 15.2697 13.9266 15.0829C13.9609 14.8961 13.9141 14.7042 13.7964 14.5495C13.6787 14.3948 13.4997 14.2899 13.2989 14.258C13.098 14.226 12.8918 14.2696 12.7255 14.379C10.0666 16.1314 6.84456 17.1838 3.68091 17.1838H2.8301C2.07158 16.4731 1.43794 15.6558 0.952393 14.7619H1.39571C4.62591 14.7619 7.67489 13.3743 9.65805 11.0029L10.0983 10.4762H10.1925C13.652 10.4762 16.8822 12.0848 18.8009 14.7619L19.0476 15.1057C18.1607 16.5896 16.8633 17.8258 15.29 18.6864C13.7166 19.5469 11.9245 20.0005 10.0993 20C8.1975 20.0029 6.33274 19.5107 4.71601 18.579C7.88477 18.3771 11.0095 17.26 13.6131 15.5457Z" fill="#797C7C"/>
</g>
<defs>
<clipPath id="clip0_1_1343">
<rect width="20" height="20" fill="white"/>
</clipPath>
</defs>
</svg>
