<svg width="21" height="21" viewBox="0 0 21 21" fill="none" xmlns="http://www.w3.org/2000/svg">
<g id="pepicons-print:people">
<g id="Group">
<g id="Group_2">
<path id="Vector" d="M9.78819 6.47364C9.78819 7.42284 9.4132 8.33317 8.74571 9.00435C8.07822 9.67554 7.17291 10.0526 6.22893 10.0526C5.28496 10.0526 4.37965 9.67554 3.71216 9.00435C3.04467 8.33317 2.66968 7.42284 2.66968 6.47364C2.66968 5.52445 3.04467 4.61412 3.71216 3.94294C4.37965 3.27175 5.28496 2.89468 6.22893 2.89468C7.17291 2.89468 8.07822 3.27175 8.74571 3.94294C9.4132 4.61412 9.78819 5.52445 9.78819 6.47364Z" fill="#797C7C"/>
<path id="Vector_2" fill-rule="evenodd" clip-rule="evenodd" d="M6.22893 7.66663C6.54359 7.66663 6.84536 7.54094 7.06786 7.31721C7.29035 7.09348 7.41535 6.79004 7.41535 6.47364C7.41535 6.15724 7.29035 5.8538 7.06786 5.63008C6.84536 5.40635 6.54359 5.28066 6.22893 5.28066C5.91427 5.28066 5.6125 5.40635 5.39001 5.63008C5.16751 5.8538 5.04251 6.15724 5.04251 6.47364C5.04251 6.79004 5.16751 7.09348 5.39001 7.31721C5.6125 7.54094 5.91427 7.66663 6.22893 7.66663ZM6.22893 10.0526C6.69634 10.0526 7.15917 9.96003 7.591 9.78017C8.02283 9.60031 8.4152 9.33669 8.74571 9.00435C9.07621 8.67201 9.33839 8.27747 9.51725 7.84325C9.69612 7.40903 9.78819 6.94364 9.78819 6.47364C9.78819 6.00365 9.69612 5.53825 9.51725 5.10404C9.33839 4.66982 9.07621 4.27527 8.74571 3.94294C8.4152 3.6106 8.02283 3.34698 7.591 3.16712C7.15917 2.98726 6.69634 2.89468 6.22893 2.89468C5.28496 2.89468 4.37965 3.27175 3.71216 3.94294C3.04467 4.61412 2.66968 5.52445 2.66968 6.47364C2.66968 7.42284 3.04467 8.33317 3.71216 9.00435C4.37965 9.67554 5.28496 10.0526 6.22893 10.0526Z" fill="#797C7C"/>
<path id="Vector_3" fill-rule="evenodd" clip-rule="evenodd" d="M6.28821 10.9474C5.81622 10.9474 5.36356 11.136 5.02982 11.4716C4.69607 11.8072 4.50858 12.2623 4.50858 12.7369V14.5264C4.50858 14.8428 4.38358 15.1462 4.16108 15.37C3.93859 15.5937 3.63682 15.7194 3.32216 15.7194C3.0075 15.7194 2.70573 15.5937 2.48324 15.37C2.26074 15.1462 2.13574 14.8428 2.13574 14.5264V12.7369C2.13574 11.6295 2.57323 10.5675 3.35197 9.78442C4.13071 9.00138 5.1869 8.56146 6.28821 8.56146C7.38951 8.56146 8.4457 9.00138 9.22444 9.78442C10.0032 10.5675 10.4407 11.6295 10.4407 12.7369V13.3334C10.4407 13.6498 10.3157 13.9533 10.0932 14.177C9.87068 14.4007 9.56891 14.5264 9.25425 14.5264C8.93959 14.5264 8.63782 14.4007 8.41533 14.177C8.19283 13.9533 8.06783 13.6498 8.06783 13.3334V12.7369C8.06783 12.2623 7.88034 11.8072 7.54659 11.4716C7.21285 11.136 6.76019 10.9474 6.28821 10.9474Z" fill="#797C7C"/>
<path id="Vector_4" d="M13.347 6.47364C13.347 7.42284 13.722 8.33317 14.3895 9.00435C15.057 9.67554 15.9623 10.0526 16.9062 10.0526C17.8502 10.0526 18.7555 9.67554 19.423 9.00435C20.0905 8.33317 20.4655 7.42284 20.4655 6.47364C20.4655 5.52445 20.0905 4.61412 19.423 3.94294C18.7555 3.27175 17.8502 2.89468 16.9062 2.89468C15.9623 2.89468 15.057 3.27175 14.3895 3.94294C13.722 4.61412 13.347 5.52445 13.347 6.47364Z" fill="#797C7C"/>
<path id="Vector_5" fill-rule="evenodd" clip-rule="evenodd" d="M16.9062 7.66663C16.5916 7.66663 16.2898 7.54094 16.0673 7.31721C15.8448 7.09348 15.7198 6.79004 15.7198 6.47364C15.7198 6.15724 15.8448 5.8538 16.0673 5.63008C16.2898 5.40635 16.5916 5.28066 16.9062 5.28066C17.2209 5.28066 17.5227 5.40635 17.7452 5.63008C17.9677 5.8538 18.0927 6.15724 18.0927 6.47364C18.0927 6.79004 17.9677 7.09348 17.7452 7.31721C17.5227 7.54094 17.2209 7.66663 16.9062 7.66663ZM16.9062 10.0526C16.4388 10.0526 15.976 9.96003 15.5442 9.78017C15.1123 9.60031 14.72 9.33669 14.3895 9.00435C14.059 8.67201 13.7968 8.27747 13.6179 7.84325C13.439 7.40903 13.347 6.94364 13.347 6.47364C13.347 6.00365 13.439 5.53825 13.6179 5.10404C13.7968 4.66982 14.059 4.27527 14.3895 3.94294C14.72 3.6106 15.1123 3.34698 15.5442 3.16712C15.976 2.98726 16.4388 2.89468 16.9062 2.89468C17.8502 2.89468 18.7555 3.27175 19.423 3.94294C20.0905 4.61412 20.4655 5.52445 20.4655 6.47364C20.4655 7.42284 20.0905 8.33317 19.423 9.00435C18.7555 9.67554 17.8502 10.0526 16.9062 10.0526Z" fill="#797C7C"/>
<path id="Vector_6" fill-rule="evenodd" clip-rule="evenodd" d="M16.8473 10.9474C17.3193 10.9474 17.7719 11.136 18.1057 11.4716C18.4394 11.8072 18.6269 12.2623 18.6269 12.7369V14.5264C18.6269 14.8428 18.7519 15.1462 18.9744 15.37C19.1969 15.5937 19.4987 15.7194 19.8133 15.7194C20.128 15.7194 20.4298 15.5937 20.6523 15.37C20.8748 15.1462 20.9998 14.8428 20.9998 14.5264V12.7369C20.9998 11.6295 20.5623 10.5675 19.7835 9.78442C19.0048 9.00138 17.9486 8.56146 16.8473 8.56146C15.746 8.56146 14.6898 9.00138 13.9111 9.78442C13.1323 10.5675 12.6948 11.6295 12.6948 12.7369V13.3334C12.6948 13.6498 12.8198 13.9533 13.0423 14.177C13.2648 14.4007 13.5666 14.5264 13.8812 14.5264C14.1959 14.5264 14.4977 14.4007 14.7202 14.177C14.9427 13.9533 15.0677 13.6498 15.0677 13.3334V12.7369C15.0677 12.2623 15.2552 11.8072 15.5889 11.4716C15.9226 11.136 16.3753 10.9474 16.8473 10.9474Z" fill="#797C7C"/>
<path id="Vector_7" fill-rule="evenodd" clip-rule="evenodd" d="M11.6271 14.2281C11.1551 14.2281 10.7024 14.4167 10.3687 14.7522C10.0349 15.0878 9.84745 15.543 9.84745 16.0176V17.8071C9.84745 18.1235 9.72245 18.4269 9.49995 18.6507C9.27746 18.8744 8.97569 19.0001 8.66103 19.0001C8.34637 19.0001 8.0446 18.8744 7.8221 18.6507C7.59961 18.4269 7.47461 18.1235 7.47461 17.8071V16.0176C7.47461 14.9102 7.9121 13.8482 8.69084 13.0651C9.46958 12.2821 10.5258 11.8421 11.6271 11.8421C12.7284 11.8421 13.7846 12.2821 14.5633 13.0651C15.342 13.8482 15.7795 14.9102 15.7795 16.0176V17.8071C15.7795 18.1235 15.6545 18.4269 15.432 18.6507C15.2095 18.8744 14.9078 19.0001 14.5931 19.0001C14.2785 19.0001 13.9767 18.8744 13.7542 18.6507C13.5317 18.4269 13.4067 18.1235 13.4067 17.8071V16.0176C13.4067 15.543 13.2192 15.0878 12.8855 14.7522C12.5517 14.4167 12.0991 14.2281 11.6271 14.2281Z" fill="#797C7C"/>
<path id="Vector_8" d="M15.1268 9.75441C15.1268 10.7036 14.7518 11.6139 14.0843 12.2851C13.4168 12.9563 12.5115 13.3334 11.5676 13.3334C10.6236 13.3334 9.71827 12.9563 9.05078 12.2851C8.38329 11.6139 8.0083 10.7036 8.0083 9.75441C8.0083 8.80521 8.38329 7.89488 9.05078 7.2237C9.71827 6.55251 10.6236 6.17545 11.5676 6.17545C12.5115 6.17545 13.4168 6.55251 14.0843 7.2237C14.7518 7.89488 15.1268 8.80521 15.1268 9.75441Z" fill="#797C7C"/>
<path id="Vector_9" fill-rule="evenodd" clip-rule="evenodd" d="M11.5676 10.9474C11.8822 10.9474 12.184 10.8217 12.4065 10.598C12.629 10.3742 12.754 10.0708 12.754 9.75441C12.754 9.43801 12.629 9.13457 12.4065 8.91084C12.184 8.68711 11.8822 8.56142 11.5676 8.56142C11.2529 8.56142 10.9511 8.68711 10.7286 8.91084C10.5061 9.13457 10.3811 9.43801 10.3811 9.75441C10.3811 10.0708 10.5061 10.3742 10.7286 10.598C10.9511 10.8217 11.2529 10.9474 11.5676 10.9474ZM11.5676 13.3334C12.5115 13.3334 13.4168 12.9563 14.0843 12.2851C14.7518 11.6139 15.1268 10.7036 15.1268 9.75441C15.1268 8.80521 14.7518 7.89488 14.0843 7.2237C13.4168 6.55251 12.5115 6.17545 11.5676 6.17545C10.6236 6.17545 9.71827 6.55251 9.05078 7.2237C8.38329 7.89488 8.0083 8.80521 8.0083 9.75441C8.0083 10.7036 8.38329 11.6139 9.05078 12.2851C9.71827 12.9563 10.6236 13.3334 11.5676 13.3334Z" fill="#797C7C"/>
<path id="Vector_10" d="M3.2627 10.9474H9.19479V15.7193H3.2627V10.9474ZM13.9405 10.9474H19.8725V15.7193H13.9405V10.9474Z" fill="#797C7C"/>
<path id="Vector_11" d="M9.19477 13.3334H13.9404L14.5337 19.0001H8.60156L9.19477 13.3334Z" fill="#797C7C"/>
</g>
<path id="Vector_12" fill-rule="evenodd" clip-rule="evenodd" d="M4.15227 7.96493C4.78159 7.96493 5.38513 7.71356 5.83012 7.2661C6.27511 6.81864 6.52511 6.21176 6.52511 5.57896C6.52511 4.94616 6.27511 4.33928 5.83012 3.89182C5.38513 3.44437 4.78159 3.19299 4.15227 3.19299C3.52296 3.19299 2.91942 3.44437 2.47442 3.89182C2.02943 4.33928 1.77944 4.94616 1.77944 5.57896C1.77944 6.21176 2.02943 6.81864 2.47442 7.2661C2.91942 7.71356 3.52296 7.96493 4.15227 7.96493ZM4.15227 9.15792C4.61968 9.15792 5.08251 9.06535 5.51434 8.88549C5.94617 8.70563 6.33854 8.44201 6.66904 8.10967C6.99955 7.77733 7.26173 7.38279 7.44059 6.94857C7.61946 6.51435 7.71153 6.04896 7.71153 5.57896C7.71153 5.10896 7.61946 4.64357 7.44059 4.20935C7.26173 3.77513 6.99955 3.38059 6.66904 3.04825C6.33854 2.71592 5.94617 2.45229 5.51434 2.27243C5.08251 2.09257 4.61968 2 4.15227 2C3.2083 2 2.30299 2.37707 1.6355 3.04825C0.96801 3.71944 0.593018 4.62976 0.593018 5.57896C0.593018 6.52816 0.96801 7.43848 1.6355 8.10967C2.30299 8.78085 3.2083 9.15792 4.15227 9.15792Z" fill="#D9D9D9"/>
<path id="Vector_13" fill-rule="evenodd" clip-rule="evenodd" d="M2.79283 7.84083C2.84807 7.89624 2.8919 7.96207 2.92181 8.03453C2.95171 8.107 2.96711 8.18469 2.96711 8.26315C2.96711 8.34161 2.95171 8.4193 2.92181 8.49177C2.8919 8.56423 2.84807 8.63006 2.79283 8.68547L2.39182 9.0875C1.6201 9.86371 1.18652 10.9163 1.18642 12.0139V14.2281C1.18642 14.3863 1.12392 14.538 1.01267 14.6499C0.901423 14.7617 0.750538 14.8246 0.593209 14.8246C0.43588 14.8246 0.284995 14.7617 0.173747 14.6499C0.0624986 14.538 0 14.3863 0 14.2281V12.0139C0.000168186 10.6 0.558786 9.24395 1.55302 8.24406L1.95284 7.84083C2.00795 7.78528 2.07341 7.74121 2.14548 7.71114C2.21755 7.68107 2.29481 7.66559 2.37284 7.66559C2.45086 7.66559 2.52812 7.68107 2.60019 7.71114C2.67226 7.74121 2.73772 7.78528 2.79283 7.84083ZM16.7831 7.48294C16.7278 7.53834 16.684 7.60417 16.6541 7.67664C16.6242 7.74911 16.6088 7.82679 16.6088 7.90525C16.6088 7.98371 16.6242 8.0614 16.6541 8.13387C16.684 8.20634 16.7278 8.27216 16.7831 8.32757L17.1841 8.72961C17.5663 9.11391 17.8694 9.57014 18.0762 10.0723C18.2831 10.5744 18.3895 11.1125 18.3895 11.656V14.2281C18.3895 14.3863 18.452 14.538 18.5632 14.6499C18.6745 14.7617 18.8254 14.8246 18.9827 14.8246C19.14 14.8246 19.2909 14.7617 19.4022 14.6499C19.5134 14.538 19.5759 14.3863 19.5759 14.2281V11.656C19.5757 10.2421 19.0171 8.88605 18.0229 7.88617L17.6231 7.48294C17.568 7.42739 17.5025 7.38331 17.4304 7.35324C17.3584 7.32317 17.2811 7.30769 17.2031 7.30769C17.125 7.30769 17.0478 7.32317 16.9757 7.35324C16.9036 7.38331 16.8382 7.42739 16.7831 7.48294Z" fill="#D9D9D9"/>
<path id="Vector_14" fill-rule="evenodd" clip-rule="evenodd" d="M14.8302 7.96493C14.2009 7.96493 13.5974 7.71356 13.1524 7.2661C12.7074 6.81864 12.4574 6.21176 12.4574 5.57896C12.4574 4.94616 12.7074 4.33928 13.1524 3.89182C13.5974 3.44437 14.2009 3.19299 14.8302 3.19299C15.4595 3.19299 16.0631 3.44437 16.5081 3.89182C16.9531 4.33928 17.203 4.94616 17.203 5.57896C17.203 6.21176 16.9531 6.81864 16.5081 7.2661C16.0631 7.71356 15.4595 7.96493 14.8302 7.96493ZM14.8302 9.15792C14.3628 9.15792 13.9 9.06535 13.4681 8.88549C13.0363 8.70563 12.6439 8.44201 12.3134 8.10967C11.9829 7.77733 11.7208 7.38279 11.5419 6.94857C11.363 6.51435 11.271 6.04896 11.271 5.57896C11.271 5.10896 11.363 4.64357 11.5419 4.20935C11.7208 3.77513 11.9829 3.38059 12.3134 3.04825C12.6439 2.71592 13.0363 2.45229 13.4681 2.27243C13.9 2.09257 14.3628 2 14.8302 2C15.7742 2 16.6795 2.37707 17.347 3.04825C18.0145 3.71944 18.3895 4.62976 18.3895 5.57896C18.3895 6.52816 18.0145 7.43848 17.347 8.10967C16.6795 8.78085 15.7742 9.15792 14.8302 9.15792ZM9.49133 13.0351C8.70469 13.0351 7.95026 13.3494 7.39402 13.9087C6.83778 14.468 6.52529 15.2266 6.52529 16.0176V17.5685C6.52529 17.7267 6.46279 17.8784 6.35154 17.9903C6.24029 18.1021 6.08941 18.165 5.93208 18.165C5.77475 18.165 5.62386 18.1021 5.51261 17.9903C5.40137 17.8784 5.33887 17.7267 5.33887 17.5685V16.0176C5.33887 14.9102 5.77636 13.8482 6.5551 13.0651C7.33383 12.2821 8.39003 11.8421 9.49133 11.8421C10.5926 11.8421 11.6488 12.2821 12.4276 13.0651C13.2063 13.8482 13.6438 14.9102 13.6438 16.0176V17.5685C13.6438 17.7267 13.5813 17.8784 13.47 17.9903C13.3588 18.1021 13.2079 18.165 13.0506 18.165C12.8933 18.165 12.7424 18.1021 12.6311 17.9903C12.5199 17.8784 12.4574 17.7267 12.4574 17.5685V16.0176C12.4574 15.6259 12.3807 15.2381 12.2316 14.8763C12.0825 14.5144 11.8641 14.1856 11.5886 13.9087C11.3132 13.6317 10.9862 13.412 10.6264 13.2622C10.2665 13.1123 9.88084 13.0351 9.49133 13.0351Z" fill="#D9D9D9"/>
<path id="Vector_15" fill-rule="evenodd" clip-rule="evenodd" d="M9.49138 11.2457C10.1207 11.2457 10.7242 10.9943 11.1692 10.5468C11.6142 10.0994 11.8642 9.49251 11.8642 8.85971C11.8642 8.22691 11.6142 7.62003 11.1692 7.17257C10.7242 6.72511 10.1207 6.47373 9.49138 6.47373C8.86207 6.47373 8.25853 6.72511 7.81354 7.17257C7.36854 7.62003 7.11855 8.22691 7.11855 8.85971C7.11855 9.49251 7.36854 10.0994 7.81354 10.5468C8.25853 10.9943 8.86207 11.2457 9.49138 11.2457ZM9.49138 12.4387C10.4354 12.4387 11.3407 12.0616 12.0082 11.3904C12.6756 10.7192 13.0506 9.80891 13.0506 8.85971C13.0506 7.91051 12.6756 7.00019 12.0082 6.329C11.3407 5.65781 10.4354 5.28075 9.49138 5.28075C8.54741 5.28075 7.6421 5.65781 6.97461 6.329C6.30712 7.00019 5.93213 7.91051 5.93213 8.85971C5.93213 9.80891 6.30712 10.7192 6.97461 11.3904C7.6421 12.0616 8.54741 12.4387 9.49138 12.4387Z" fill="#D9D9D9"/>
</g>
</g>
</svg>
