<svg width="21" height="21" viewBox="0 0 21 21" fill="none" xmlns="http://www.w3.org/2000/svg">
<g id="ph:download-duotone" clip-path="url(#clip0_1_1021)">
<g id="Group">
<path id="Vector" d="M20.25 12.6V19.32C20.25 19.5428 20.171 19.7564 20.0303 19.914C19.8897 20.0715 19.6989 20.16 19.5 20.16H1.5C1.30109 20.16 1.11032 20.0715 0.96967 19.914C0.829018 19.7564 0.75 19.5428 0.75 19.32V12.6C0.75 12.3772 0.829018 12.1636 0.96967 12.006C1.11032 11.8485 1.30109 11.76 1.5 11.76H19.5C19.6989 11.76 19.8897 11.8485 20.0303 12.006C20.171 12.1636 20.25 12.3772 20.25 12.6Z" fill="#797C7C"/>
<path id="Vector_2" d="M21 12.6V19.32C21 19.7656 20.842 20.1929 20.5607 20.5079C20.2794 20.823 19.8978 21 19.5 21H1.5C1.10218 21 0.720644 20.823 0.43934 20.5079C0.158035 20.1929 0 19.7656 0 19.32V12.6C0 12.1544 0.158035 11.7271 0.43934 11.4121C0.720644 11.097 1.10218 10.92 1.5 10.92H5.25C5.44891 10.92 5.63968 11.0085 5.78033 11.166C5.92098 11.3236 6 11.5372 6 11.76C6 11.9828 5.92098 12.1964 5.78033 12.354C5.63968 12.5115 5.44891 12.6 5.25 12.6H1.5V19.32H19.5V12.6H15.75C15.5511 12.6 15.3603 12.5115 15.2197 12.354C15.079 12.1964 15 11.9828 15 11.76C15 11.5372 15.079 11.3236 15.2197 11.166C15.3603 11.0085 15.5511 10.92 15.75 10.92H19.5C19.8978 10.92 20.2794 11.097 20.5607 11.4121C20.842 11.7271 21 12.1544 21 12.6ZM9.96937 12.3543C10.039 12.4324 10.1217 12.4944 10.2128 12.5366C10.3038 12.5789 10.4014 12.6007 10.5 12.6007C10.5986 12.6007 10.6962 12.5789 10.7872 12.5366C10.8783 12.4944 10.961 12.4324 11.0306 12.3543L15.5306 7.3143C15.6714 7.15668 15.7504 6.94291 15.7504 6.72C15.7504 6.49709 15.6714 6.28332 15.5306 6.1257C15.3899 5.96808 15.199 5.87953 15 5.87953C14.801 5.87953 14.6101 5.96808 14.4694 6.1257L11.25 9.73245V0.84C11.25 0.617218 11.171 0.403561 11.0303 0.24603C10.8897 0.0884997 10.6989 0 10.5 0C10.3011 0 10.1103 0.0884997 9.96967 0.24603C9.82902 0.403561 9.75 0.617218 9.75 0.84V9.73245L6.53063 6.1257C6.38989 5.96808 6.19902 5.87953 6 5.87953C5.80098 5.87953 5.61011 5.96808 5.46938 6.1257C5.32864 6.28332 5.24958 6.49709 5.24958 6.72C5.24958 6.94291 5.32864 7.15668 5.46937 7.3143L9.96937 12.3543ZM17.25 15.96C17.25 15.7108 17.184 15.4672 17.0604 15.26C16.9368 15.0528 16.7611 14.8913 16.5555 14.7959C16.35 14.7005 16.1238 14.6756 15.9055 14.7242C15.6873 14.7728 15.4868 14.8928 15.3295 15.069C15.1722 15.2453 15.065 15.4698 15.0216 15.7142C14.9782 15.9586 15.0005 16.2119 15.0856 16.4422C15.1708 16.6724 15.315 16.8692 15.5 17.0077C15.685 17.1461 15.9025 17.22 16.125 17.22C16.4234 17.22 16.7095 17.0872 16.9205 16.851C17.1315 16.6147 17.25 16.2942 17.25 15.96Z" fill="#D9D9D9"/>
</g>
</g>
<defs>
<clipPath id="clip0_1_1021">
<rect width="21" height="21" fill="white"/>
</clipPath>
</defs>
</svg>
