<svg width="21" height="21" viewBox="0 0 21 21" fill="none" xmlns="http://www.w3.org/2000/svg">
<g id="ic:twotone-support" clip-path="url(#clip0_1_1015)">
<path id="Vector" d="M8.563 5.16756L7.22989 2C6.04052 2.45689 4.96039 3.15852 4.05945 4.05945C3.15852 4.96039 2.45689 6.04052 2 7.22989L5.16756 8.54021C5.74866 6.96783 6.99062 5.73727 8.563 5.16756ZM5.16756 12.4598L2 13.7701C2.92292 16.1629 4.82574 18.0771 7.22989 19L8.563 15.8324C7.78568 15.5513 7.07911 15.1038 6.49265 14.5213C5.90618 13.9387 5.45396 13.2352 5.16756 12.4598ZM15.821 8.52882L18.9886 7.2185C18.5302 6.03316 17.8292 4.95667 16.9306 4.05802C16.0319 3.15938 14.9554 2.45839 13.7701 2L12.4598 5.16756C14.0208 5.74866 15.2513 6.96783 15.821 8.52882ZM15.8324 12.4484C15.5497 13.2217 15.1029 13.9246 14.5227 14.5088C13.9424 15.093 13.2426 15.5445 12.4712 15.8324L13.7815 19C16.1743 18.0771 18.0771 16.1743 19 13.7815L15.8324 12.4484Z" fill="#D9D9D9"/>
<path id="Vector_2" d="M10.5 0C4.704 0 0 4.704 0 10.5C0 16.296 4.704 21 10.5 21C16.296 21 21 16.296 21 10.5C21 4.704 16.296 0 10.5 0ZM13.5135 2.667C15.7185 3.5175 17.472 5.271 18.3225 7.476L15.4035 8.6835C15.1405 7.97593 14.7275 7.33366 14.1928 6.80079C13.6581 6.26793 13.0145 5.85709 12.306 5.5965L13.5135 2.667ZM7.4865 2.667L8.715 5.586C7.99818 5.84723 7.34691 6.26155 6.80653 6.80012C6.26614 7.33869 5.84964 7.98856 5.586 8.7045L2.667 7.4865C3.08804 6.39046 3.73461 5.39508 4.56485 4.56485C5.39508 3.73461 6.39046 3.08804 7.4865 2.667ZM7.4865 18.333C6.39142 17.9103 5.3969 17.2631 4.56687 16.4331C3.73685 15.6031 3.08969 14.6086 2.667 13.5135L5.586 12.306C5.8478 13.0201 6.26258 13.6683 6.80128 14.2051C7.33997 14.742 7.98955 15.1546 8.7045 15.414L7.4865 18.333ZM7.35 10.5C7.35 8.757 8.757 7.35 10.5 7.35C12.243 7.35 13.65 8.757 13.65 10.5C13.65 12.243 12.243 13.65 10.5 13.65C8.757 13.65 7.35 12.243 7.35 10.5ZM13.524 18.333L12.3165 15.414C13.0283 15.1503 13.6741 14.7347 14.209 14.1962C14.7439 13.6576 15.1551 13.009 15.414 12.2955L18.333 13.524C17.9106 14.6163 17.2646 15.6083 16.4365 16.4365C15.6083 17.2646 14.6163 17.9106 13.524 18.333Z" fill="#797C7C"/>
</g>
<defs>
<clipPath id="clip0_1_1015">
<rect width="21" height="21" fill="white"/>
</clipPath>
</defs>
</svg>
