<svg width="21" height="21" viewBox="0 0 21 21" fill="none" xmlns="http://www.w3.org/2000/svg">
<g id="solar:money-bag-bold" clip-path="url(#clip0_1_1005)">
<path id="Vector" fill-rule="evenodd" clip-rule="evenodd" d="M10.5546 0H10.4454C9.50145 0 8.715 4.52421e-08 8.0913 0.0809639C7.4319 0.165976 6.83655 0.354217 6.3588 0.814699C5.88 1.27619 5.6847 1.85002 5.5965 2.48458C5.53665 2.91672 5.5188 3.948 5.5146 4.83253C3.3915 4.90034 2.11575 5.13918 1.2306 5.99335C-1.2517e-07 7.17846 0 9.08718 0 12.9036C0 16.72 -1.2517e-07 18.6288 1.2306 19.8139C2.46015 21 4.44045 21 8.4 21H12.6C16.5595 21 18.5398 21 19.7694 19.8139C21 18.6288 21 16.72 21 12.9036C21 9.08718 21 7.17846 19.7694 5.99335C18.8842 5.13918 17.6085 4.90034 15.4854 4.83354C15.4812 3.948 15.4644 2.91672 15.4035 2.48559C15.3153 1.85002 15.12 1.27619 14.6412 0.815711C14.1634 0.354217 13.5681 0.165976 12.9087 0.0809639C12.285 4.52421e-08 11.4975 0 10.5546 0ZM13.9104 4.80925C13.9051 3.95205 13.8904 3.03007 13.8432 2.68699C13.777 2.22043 13.6647 2.02005 13.5282 1.88848C13.3917 1.75692 13.1838 1.64863 12.6987 1.58487C12.1926 1.5201 11.5122 1.51807 10.5 1.51807C9.4878 1.51807 8.8074 1.5201 8.30025 1.58588C7.8162 1.64863 7.6083 1.75692 7.4718 1.88949C7.3353 2.02106 7.22295 2.22043 7.1568 2.68699C7.10955 3.03108 7.0938 3.95205 7.0896 4.80925C7.50015 4.80723 7.938 4.80723 8.4 4.80723H12.6C13.063 4.80723 13.4998 4.80723 13.9104 4.80925ZM10.5 8.09639C10.7089 8.09639 10.9092 8.17636 11.0568 8.3187C11.2045 8.46105 11.2875 8.65411 11.2875 8.85542V8.86554C12.4309 9.14284 13.3875 10.0122 13.3875 11.2165C13.3875 11.4178 13.3045 11.6109 13.1568 11.7533C13.0092 11.8956 12.8089 11.9756 12.6 11.9756C12.3911 11.9756 12.1908 11.8956 12.0432 11.7533C11.8955 11.6109 11.8125 11.4178 11.8125 11.2165C11.8125 10.8279 11.3652 10.2895 10.5 10.2895C9.6348 10.2895 9.1875 10.8279 9.1875 11.2165C9.1875 11.6052 9.6348 12.1446 10.5 12.1446C11.9542 12.1446 13.3875 13.1161 13.3875 14.5907C13.3875 15.795 12.4309 16.6634 11.2875 16.9417V16.9518C11.2875 17.1531 11.2045 17.3462 11.0568 17.4885C10.9092 17.6309 10.7089 17.7108 10.5 17.7108C10.2911 17.7108 10.0908 17.6309 9.94315 17.4885C9.79547 17.3462 9.7125 17.1531 9.7125 16.9518V16.9417C8.56905 16.6644 7.6125 15.795 7.6125 14.5907C7.6125 14.3894 7.69547 14.1963 7.84315 14.054C7.99084 13.9116 8.19114 13.8317 8.4 13.8317C8.60886 13.8317 8.80916 13.9116 8.95685 14.054C9.10453 14.1963 9.1875 14.3894 9.1875 14.5907C9.1875 14.9793 9.6348 15.5177 10.5 15.5177C11.3652 15.5177 11.8125 14.9793 11.8125 14.5907C11.8125 14.2021 11.3652 13.6627 10.5 13.6627C9.04575 13.6627 7.6125 12.6911 7.6125 11.2165C7.6125 10.0122 8.56905 9.14284 9.7125 8.86554V8.85542C9.7125 8.65411 9.79547 8.46105 9.94315 8.3187C10.0908 8.17636 10.2911 8.09639 10.5 8.09639Z" fill="#797C7C"/>
</g>
<defs>
<clipPath id="clip0_1_1005">
<rect width="21" height="21" fill="white"/>
</clipPath>
</defs>
</svg>
