<svg width="21" height="21" viewBox="0 0 21 21" fill="none" xmlns="http://www.w3.org/2000/svg">
<g id="material-symbols:support-agent" clip-path="url(#clip0_1_1010)">
<path id="Vector" d="M9.45 21V18.6667H17.85V10.3833C17.85 8.10833 17.137 6.17867 15.7111 4.59433C14.2852 3.01 12.5482 2.21744 10.5 2.21667C8.4525 2.21667 6.7158 3.00922 5.2899 4.59433C3.864 6.17944 3.1507 8.10911 3.15 10.3833V17.5H2.1C1.5225 17.5 1.0283 17.2717 0.6174 16.8152C0.2065 16.3586 0.0007 15.8091 0 15.1667V12.8333C0 12.425 0.09205 12.0412 0.27615 11.6818C0.46025 11.3225 0.7182 11.0355 1.05 10.8208L1.12875 9.275C1.26875 7.95278 1.61455 6.72778 2.16615 5.6C2.71775 4.47222 3.409 3.49028 4.2399 2.65417C5.0708 1.81806 6.0242 1.16667 7.1001 0.7C8.176 0.233333 9.3093 0 10.5 0C11.69 0 12.8187 0.233333 13.8862 0.7C14.9537 1.16667 15.9075 1.81339 16.7475 2.64017C17.5875 3.46617 18.2787 4.44306 18.8212 5.57083C19.3637 6.69861 19.7137 7.92361 19.8712 9.24583L19.95 10.7625C20.2825 10.9375 20.5408 11.2 20.7249 11.55C20.909 11.9 21.0007 12.2694 21 12.6583V15.3417C21 15.7306 20.9083 16.1 20.7249 16.45C20.5415 16.8 20.2832 17.0625 19.95 17.2375V18.6667C19.95 19.3083 19.7445 19.8578 19.3336 20.3152C18.9227 20.7725 18.4282 21.0008 17.85 21H9.45ZM7.35 12.8333C7.0525 12.8333 6.8033 12.7213 6.6024 12.4973C6.4015 12.2733 6.3007 11.9964 6.3 11.6667C6.3 11.3361 6.4008 11.0592 6.6024 10.836C6.804 10.6128 7.0532 10.5008 7.35 10.5C7.6475 10.5 7.89705 10.612 8.09865 10.836C8.30025 11.06 8.4007 11.3369 8.4 11.6667C8.4 11.9972 8.2992 12.2745 8.0976 12.4985C7.896 12.7225 7.6468 12.8341 7.35 12.8333ZM13.65 12.8333C13.3525 12.8333 13.1033 12.7213 12.9024 12.4973C12.7015 12.2733 12.6007 11.9964 12.6 11.6667C12.6 11.3361 12.7008 11.0592 12.9024 10.836C13.104 10.6128 13.3532 10.5008 13.65 10.5C13.9475 10.5 14.197 10.612 14.3986 10.836C14.6002 11.06 14.7007 11.3369 14.7 11.6667C14.7 11.9972 14.5992 12.2745 14.3976 12.4985C14.196 12.7225 13.9468 12.8341 13.65 12.8333ZM4.22625 11.025C4.10375 8.96389 4.66375 7.19444 5.90625 5.71667C7.14875 4.23889 8.6975 3.5 10.5525 3.5C12.11 3.5 13.4795 4.04911 14.6611 5.14733C15.8427 6.24555 16.5557 7.651 16.8 9.36367C15.2075 9.34344 13.742 8.86667 12.4036 7.93333C11.0652 7 10.0369 5.73611 9.31875 4.14167C9.03875 5.69722 8.4483 7.08283 7.5474 8.2985C6.6465 9.51417 5.53945 10.423 4.22625 11.025Z" fill="#797C7C"/>
</g>
<defs>
<clipPath id="clip0_1_1010">
<rect width="21" height="21" fill="white"/>
</clipPath>
</defs>
</svg>
