<svg width="21" height="17" viewBox="0 0 21 17" fill="none" xmlns="http://www.w3.org/2000/svg">
<path d="M19.8442 6.44658C19.2065 6.44658 18.6879 6.96531 18.6879 7.60278C18.6879 7.88552 18.7902 8.14437 18.959 8.34556L16.6493 10.6551C16.2379 11.0665 15.9686 10.9325 16.0478 10.3564L16.057 10.2899C16.1359 9.71385 15.8494 9.56165 15.4169 9.95044L15.3376 10.022C14.9047 10.4108 14.4671 10.2623 14.3602 9.69055L13.5231 5.2151C13.416 4.64335 13.2052 4.63468 13.0518 5.19583L12.0028 9.03277C11.8497 9.59391 11.66 9.58197 11.5795 9.00573L10.7435 3.02846C11.2645 2.91629 11.6563 2.45252 11.6563 1.89839C11.6563 1.26092 11.1375 0.742188 10.5001 0.742188C9.86245 0.742188 9.34372 1.26092 9.34372 1.89839C9.34372 2.45237 9.7358 2.91629 10.2566 3.02846L9.42139 9.00573C9.34088 9.58182 9.1512 9.59391 8.99795 9.03277L7.94899 5.19568C7.7956 4.63453 7.58455 4.6432 7.47761 5.21495L6.64044 9.6904C6.5335 10.2622 6.09602 10.4103 5.66317 10.0218L5.58356 9.95029C5.15086 9.56135 4.86424 9.7134 4.94325 10.2896L4.95236 10.3561C5.03137 10.9323 4.76208 11.066 4.35074 10.6548L2.04132 8.34556C2.21039 8.14437 2.31256 7.88552 2.31256 7.60278C2.31256 6.96516 1.79383 6.44658 1.15635 6.44658C0.518731 6.44658 0 6.96531 0 7.60278C0 8.24041 0.518731 8.75914 1.15635 8.75914C1.22775 8.75914 1.29705 8.75167 1.36486 8.73942L2.864 13.8101C3.02889 14.3678 3.39184 15.2495 3.93357 15.4613C5.13727 15.9322 7.62577 16.2556 10.5001 16.2556C13.3745 16.2556 15.8629 15.9322 17.0667 15.4613C17.6083 15.2495 17.9716 14.3679 18.1363 13.8101L19.6354 8.73942C19.7031 8.75182 19.7726 8.75914 19.8439 8.75914C20.4814 8.75914 20.9999 8.24041 20.9999 7.60278C21.0002 6.96531 20.4814 6.44658 19.8442 6.44658ZM1.65835 7.96245C1.55604 8.10494 1.39533 8.20217 1.21117 8.21845C1.1931 8.22009 1.17487 8.22129 1.15635 8.22129C0.815212 8.22129 0.537699 7.94392 0.537699 7.60264C0.537699 7.2615 0.815212 6.98413 1.15635 6.98413C1.49734 6.98413 1.77486 7.2615 1.77486 7.60264C1.77486 7.73721 1.73139 7.86133 1.65835 7.96245ZM9.88157 1.89854C9.88157 1.55755 10.1591 1.28004 10.5002 1.28004C10.8412 1.28004 11.119 1.5574 11.119 1.89854C11.119 2.18113 10.9284 2.41951 10.6689 2.49315C10.6152 2.50838 10.5588 2.51704 10.5002 2.51704C10.4417 2.51704 10.3854 2.50838 10.3317 2.49315C10.0723 2.41936 9.88157 2.18098 9.88157 1.89854ZM10.5002 15.2359L8.20604 12.9415L10.5002 10.6474L12.7943 12.9414L10.5002 15.2359ZM19.8442 8.22144C19.8256 8.22144 19.8072 8.22024 19.7891 8.2186C19.6053 8.20232 19.4443 8.10508 19.3421 7.96259C19.2692 7.86103 19.2257 7.73706 19.2257 7.60278C19.2257 7.26164 19.503 6.98428 19.8444 6.98428C20.1852 6.98428 20.463 7.26164 20.463 7.60278C20.4626 7.94378 20.1851 8.22144 19.8442 8.22144ZM8.96703 12.9418L10.501 11.4079L12.0348 12.9418L10.501 14.4758L8.96703 12.9418Z" fill="#FDFFFF" stroke="white" stroke-width="0.149361"/>
</svg>
