<svg width="21" height="21" viewBox="0 0 21 21" fill="none" xmlns="http://www.w3.org/2000/svg">
<g clip-path="url(#clip0_1_865)">
<path d="M7.875 3.84234C7.875 2.44166 9.06445 0 10.5 0C11.9766 0 13.125 2.44166 13.125 3.84234V16.4062L15.4875 18.1781C15.6516 18.3012 15.75 18.4611 15.75 18.7031V20.3889C15.75 20.7416 15.4916 21 15.1389 21C15.1225 21 15.0691 20.9918 15.0158 20.9795L10.5 19.6875L5.98418 20.9795C5.93086 20.9918 5.87754 21 5.82422 21C5.5084 21 5.25 20.7416 5.25 20.3889V18.7031C5.25 18.4611 5.34844 18.3012 5.5125 18.1781L7.875 16.4062V3.84234Z" fill="#FDFFFF"/>
<path opacity="0.4" d="M7.875 13.125L0.863789 15.426C0.438867 15.6023 0 15.2865 0 14.8395V12.5139C0 12.075 0.219311 11.6648 0.584473 11.4229L7.875 6.5625V13.125ZM13.125 6.5625L20.4176 11.4229C20.7826 11.6648 21 12.075 21 12.5139V14.8395C21 15.2865 20.5611 15.6023 20.1346 15.426L13.125 13.0881V6.5625Z" fill="#FDFFFF"/>
</g>
<defs>
<clipPath id="clip0_1_865">
<rect width="21" height="21" fill="white"/>
</clipPath>
</defs>
</svg>
