<svg width="21" height="21" viewBox="0 0 21 21" fill="none" xmlns="http://www.w3.org/2000/svg">
<g clip-path="url(#clip0_1_859)">
<path opacity="0.4" d="M7.93652 9.1311C9.20288 8.79785 9.83862 7.08032 9.35156 5.30127C9.08496 4.32202 8.53125 3.5376 7.875 3.07617V0L5.25 3.28125C4.63477 4.00928 4.40918 5.23975 4.75781 6.51123C5.24487 8.29028 6.66504 9.46436 7.93652 9.1311ZM13.0635 9.1311C14.335 9.46436 15.7551 8.29028 16.2422 6.51123C16.5908 5.23975 16.3652 4.00928 15.75 3.28125L13.125 0V3.07617C12.4688 3.5376 11.915 4.32202 11.6484 5.30127C11.1614 7.08032 11.7971 8.79785 13.0635 9.1311ZM4.46045 9.98218C4.16309 8.9978 3.44019 8.26465 2.625 7.99292V5.25L0.758789 7.80835C0.266602 8.48511 0 9.30029 0 10.136C0 10.418 0.0461426 10.7153 0.133301 11.0178C0.558838 12.438 1.87646 13.3608 3.07104 13.0737C4.26562 12.7866 4.88599 11.4024 4.46045 9.98218ZM20.2412 7.80835L18.375 5.25V7.99805C17.5598 8.26465 16.8369 8.9978 16.5396 9.98218C16.114 11.4024 16.7344 12.7866 17.929 13.0737C19.1235 13.3608 20.4412 12.438 20.8667 11.0178C20.9539 10.7205 21 10.4231 21 10.136C21 9.30029 20.7334 8.48511 20.2412 7.80835Z" fill="#FDFFFF"/>
<path d="M10.5 10.5C7.24438 10.5 2.625 15.5347 2.625 18.7134C2.625 20.1438 3.72217 21 5.56787 21C7.57251 21 8.89526 19.9695 10.5 19.9695C12.1201 19.9695 13.448 21 15.4321 21C17.2778 21 18.375 20.1438 18.375 18.7134C18.375 15.5347 13.7556 10.5 10.5 10.5Z" fill="#FDFFFF"/>
</g>
<defs>
<clipPath id="clip0_1_859">
<rect width="21" height="21" fill="white"/>
</clipPath>
</defs>
</svg>
