<svg width="21" height="21" viewBox="0 0 21 21" fill="none" xmlns="http://www.w3.org/2000/svg">
<path d="M19.396 8.39844H15.5012C15.6461 8.73542 15.7179 9.0957 15.7179 9.45598C15.7179 10.1352 15.4598 10.8138 14.9425 11.3309L10.4734 15.8V17.3215C10.5005 18.193 11.206 18.8984 12.0755 18.8984H19.396C20.2655 18.8984 20.9415 18.193 20.9415 17.353V9.97344C20.971 9.10391 20.2951 8.39844 19.396 8.39844ZM15.721 14.4359C15.2863 14.4359 14.963 14.0832 14.963 13.678C14.963 13.2727 15.3158 12.92 15.721 12.92C16.1262 12.92 16.479 13.2727 16.479 13.678C16.479 14.0832 16.1837 14.4359 15.721 14.4359ZM3.15055 8.66094C2.71578 8.66094 2.39258 9.01367 2.39258 9.41891C2.39258 9.82414 2.74531 10.1769 3.15055 10.1769C3.55578 10.1769 3.90852 9.82414 3.90852 9.41891C3.90852 9.01367 3.58695 8.66094 3.15055 8.66094ZM11.5505 10.2359C11.9853 10.2359 12.3085 9.8832 12.3085 9.47797C12.3085 9.07273 11.9558 8.72 11.5505 8.72C11.1453 8.72 10.763 9.01531 10.763 9.44844C10.763 9.88156 11.1174 10.2359 11.5505 10.2359ZM7.35055 12.8609C6.91578 12.8609 6.59258 13.2137 6.59258 13.6189C6.59258 14.0241 6.94531 14.3769 7.35055 14.3769C7.78531 14.3769 8.10852 14.0241 8.10852 13.6189C8.10852 13.2137 7.78695 12.8609 7.35055 12.8609ZM7.35055 8.66094C6.91578 8.66094 6.59258 9.01367 6.59258 9.41891C6.59258 9.82414 6.94531 10.1769 7.35055 10.1769C7.75578 10.1769 8.10852 9.82414 8.10852 9.41891C8.10852 9.01367 7.78695 8.66094 7.35055 8.66094ZM7.35055 4.46094C6.91578 4.46094 6.59258 4.81367 6.59258 5.21891C6.59258 5.62414 6.94531 5.97687 7.35055 5.97687C7.78531 5.97687 8.10852 5.62414 8.10852 5.21891C8.10852 4.81367 7.78695 4.46094 7.35055 4.46094Z" fill="#FDFFFF"/>
<path opacity="0.4" d="M14.6705 9.45156C14.6705 9.03944 14.5136 8.62698 14.1996 8.311L8.46074 2.57209C8.17363 2.25854 7.76019 2.10156 7.3205 2.10156C6.9366 2.10156 6.52644 2.25854 6.20816 2.57242L0.470895 8.30969C0.157011 8.62797 0 9.03813 0 9.42203C0 9.83416 0.157041 10.2482 0.470859 10.5639L6.20977 16.3028C6.52562 16.6166 6.93787 16.7737 7.35 16.7737C7.76212 16.7737 8.17458 16.6168 8.49023 16.3028L14.2291 10.5639C14.5425 10.2752 14.6705 9.865 14.6705 9.45156ZM3.15004 10.2391C2.71527 10.2391 2.39207 9.88633 2.39207 9.48109C2.39207 9.07586 2.7448 8.72312 3.15004 8.72312C3.55527 8.72312 3.908 9.07586 3.908 9.48109C3.908 9.88633 3.58644 10.2391 3.15004 10.2391ZM7.35004 14.4391C6.91527 14.4391 6.59207 14.0863 6.59207 13.6811C6.59207 13.2759 6.9448 12.9231 7.35004 12.9231C7.7848 12.9231 8.108 13.2759 8.108 13.6811C8.108 14.0863 7.78644 14.4391 7.35004 14.4391ZM7.35004 10.2391C6.91527 10.2391 6.59207 9.88633 6.59207 9.48109C6.59207 9.07586 6.9448 8.72312 7.35004 8.72312C7.75527 8.72312 8.108 9.07586 8.108 9.48109C8.108 9.88633 7.78644 10.2391 7.35004 10.2391ZM7.35004 6.03906C6.91527 6.03906 6.59207 5.68633 6.59207 5.28109C6.59207 4.87586 6.9448 4.52312 7.35004 4.52312C7.7848 4.52312 8.108 4.87586 8.108 5.28109C8.108 5.68633 7.78644 6.03906 7.35004 6.03906ZM11.55 10.2391C11.1153 10.2391 10.7921 9.88633 10.7921 9.48109C10.7921 9.07586 11.1448 8.72312 11.55 8.72312C11.9553 8.72312 12.308 9.07586 12.308 9.48109C12.308 9.88633 11.9864 10.2391 11.55 10.2391Z" fill="#FDFFFF"/>
</svg>
