<svg width="21" height="21" viewBox="0 0 21 21" fill="none" xmlns="http://www.w3.org/2000/svg">
<g clip-path="url(#clip0_1_853)">
<path opacity="0.4" d="M15.6197 4.45331L15.0938 4.97926L16.0208 5.90625L16.5467 5.38031C16.8028 5.12425 16.8028 4.70941 16.5467 4.45331C16.2906 4.19721 15.8758 4.19725 15.6197 4.45331ZM20.8793 2.42685L19.252 1.74829L18.5734 0.12116C18.5401 0.0541816 18.4527 0 18.378 0C18.3033 0 18.2158 0.0541816 18.1825 0.12116L17.504 1.74829L15.8767 2.42685C15.8103 2.46012 15.7561 2.5476 15.7561 2.62225C15.7561 2.69653 15.8103 2.78447 15.8767 2.81777L17.504 3.49629L18.1825 5.12338C18.2158 5.19036 18.3033 5.24459 18.378 5.24459C18.4527 5.24459 18.5401 5.19036 18.5734 5.12338L19.252 3.49629L20.8793 2.81777C20.9458 2.78447 21 2.69653 21 2.62225C21 2.5476 20.9458 2.46012 20.8793 2.42685Z" fill="#FDFFFF"/>
<path d="M17.4595 7.36405L13.6437 3.54832C13.298 3.20264 12.7376 3.20264 12.3919 3.54832L11.4658 4.47445C10.5495 4.13825 9.56411 3.94535 8.53125 3.94535C3.81958 3.94535 0 7.76493 0 12.4766C0 17.1883 3.81958 21.0079 8.53125 21.0079C13.2429 21.0079 17.0625 17.1883 17.0625 12.4766C17.0625 11.4437 16.8696 10.4583 16.5334 9.54198L17.4595 8.61593C17.8052 8.27025 17.8052 7.70981 17.4595 7.36405ZM8.53125 7.88285C5.99854 7.88285 3.9375 9.94389 3.9375 12.4766C3.9375 12.8393 3.64399 13.1329 3.28125 13.1329C2.91851 13.1329 2.625 12.8393 2.625 12.4766C2.625 9.21968 5.27436 6.57035 8.53125 6.57035C8.89399 6.57035 9.1875 6.86386 9.1875 7.2266C9.1875 7.58935 8.89399 7.88285 8.53125 7.88285Z" fill="#FDFFFF"/>
</g>
<defs>
<clipPath id="clip0_1_853">
<rect width="21" height="21" fill="white"/>
</clipPath>
</defs>
</svg>
