<svg width="21" height="21" viewBox="0 0 21 21" fill="none" xmlns="http://www.w3.org/2000/svg">
<g clip-path="url(#clip0_1_871)">
<path d="M18.375 14.4375H2.625C1.9023 14.4375 1.3125 15.0273 1.3125 15.75V19.6875C1.3125 20.4102 1.9023 21 2.625 21H18.375C19.0977 21 19.6875 20.4102 19.6875 19.6875V15.75C19.6875 15.0281 19.0969 14.4375 18.375 14.4375ZM10.5 9.18751C13.0372 9.18751 15.0938 7.13057 15.0938 4.59376C15.0938 2.05694 13.0389 0 10.5 0C7.96113 0 5.86934 2.05653 5.86934 4.55684C5.86934 7.05716 7.96113 9.18751 10.5 9.18751ZM9.51562 1.96876C10.0611 1.96876 10.5 2.40968 10.5 2.95313C10.5 3.49659 10.0611 3.93751 9.51562 3.93751C8.97012 3.93751 8.53125 3.49659 8.53125 2.95313C8.53125 2.40968 8.97422 1.96876 9.51562 1.96876Z" fill="#FDFFFF"/>
<path opacity="0.4" d="M6.5625 14.4359V13.7797C6.5625 13.4146 6.27129 13.1234 5.90625 13.1234H4.59375C4.22953 13.1234 3.9375 13.4146 3.9375 13.7797V14.4363H6.5625V14.4359ZM11.8125 8.97266V14.4359H9.1875V8.97266C9.60586 9.0957 10.0406 9.18594 10.5 9.18594C10.9594 9.18594 11.3941 9.0957 11.8125 8.97266Z" fill="#FDFFFF"/>
</g>
<defs>
<clipPath id="clip0_1_871">
<rect width="21" height="21" fill="white"/>
</clipPath>
</defs>
</svg>
