<svg width="21" height="21" viewBox="0 0 21 21" fill="none" xmlns="http://www.w3.org/2000/svg">
<g clip-path="url(#clip0_1_841)">
<path d="M7.24172 2.34661C8.11453 1.84215 9.23344 2.14153 9.73875 3.01539L15.2184 12.5064C15.7205 13.3825 15.4219 14.4981 14.5491 15.0034L8.21953 18.6555C7.34672 19.1608 6.23109 18.8622 5.72578 17.9894L0.245044 8.49672C-0.259416 7.62062 0.0399656 6.505 0.913828 5.99969L7.24172 2.34661ZM4.71844 11.2005C4.49203 12.0503 4.99734 12.9002 5.85047 13.1561C6.70359 13.3858 7.55016 12.8805 7.80609 12.0273L7.88484 11.7353C7.88812 11.7255 7.89141 11.7123 7.89469 11.6992L8.47875 12.7066L8.08172 12.9362C7.86187 13.0609 7.78969 13.3398 7.91437 13.5597C8.04234 13.7795 8.32125 13.8517 8.53781 13.727L10.1194 12.8148C10.3392 12.6869 10.4147 12.408 10.2867 12.1881C10.162 11.9716 9.88312 11.8961 9.66328 12.0208L9.26953 12.2505L8.68547 11.2431C8.69859 11.2464 8.71172 11.2497 8.72484 11.253L9.01359 11.3284C9.86672 11.5581 10.7428 11.0528 10.9725 10.1997C11.1989 9.34656 10.6936 8.47047 9.84047 8.24078L6.43453 7.33844C6.09656 7.24 5.7225 7.45656 5.62406 7.82078L4.71844 11.2005Z" fill="#FDFFFF"/>
<path opacity="0.4" d="M10.6348 18.4727L15.0743 15.91C16.4491 15.1159 16.9216 13.3572 16.1276 11.9791L11.6388 4.20742C11.6979 4.20184 11.7537 4.19922 11.8127 4.19922H19.1627C20.1766 4.19922 21.0002 5.02183 21.0002 6.03672V17.0617C21.0002 18.0756 20.1766 18.8992 19.1627 18.8992H11.8127C11.3665 18.8992 10.953 18.7384 10.6348 18.4727ZM19.0249 6.55187C18.5655 6.16469 17.8929 6.24016 17.486 6.65687L17.3285 6.83078L17.1645 6.65687C16.7543 6.24016 16.0751 6.16469 15.6321 6.55187C15.117 6.99484 15.0907 7.77906 15.5501 8.25484L17.1415 9.89547C17.2399 10.0005 17.4105 10.0005 17.5188 9.89547L19.0971 8.25484C19.5565 7.77906 19.5335 6.99484 19.0249 6.55187Z" fill="#FDFFFF"/>
</g>
<defs>
<clipPath id="clip0_1_841">
<rect width="21" height="21" fill="white"/>
</clipPath>
</defs>
</svg>
