<svg width="31" height="31" viewBox="0 0 31 31" fill="none" xmlns="http://www.w3.org/2000/svg">
<path d="M15.3853 0.599993C18.2403 0.599993 20.1338 4.98584 20.1338 7.23605V9.72903L29.6309 15.6528C30.2244 16.009 30.5806 16.6025 30.5806 17.3148V21.1671C30.5806 21.7606 30.3432 22.3542 29.8683 22.7103C29.3935 23.0605 28.6871 23.1792 28.147 23.0012L20.1338 20.4548V21.9387L23.2204 24.2477C23.6952 24.6038 23.9326 25.138 23.9326 25.7316V29.109C23.9326 29.6432 23.6952 30.2367 23.2204 30.5929C22.7455 30.949 22.1519 31.0618 21.5584 30.8897L15.3853 29.109L9.2122 30.949C8.67799 31.0618 8.08442 30.949 7.60957 30.5929C7.13471 30.2367 6.83793 29.6432 6.83793 29.109V25.7316C6.83793 25.138 7.13471 24.6038 7.60957 24.2477L10.6368 21.9387V20.4548L2.62361 23.0012C2.0894 23.1792 1.43648 23.0605 0.961624 22.7103C0.48677 22.3542 0.189987 21.7606 0.189987 21.1671V17.3148C0.189987 16.6619 0.605484 15.9496 1.13969 15.7122L10.6368 9.78838V7.2954C10.6368 4.98584 12.5362 0.599993 15.3853 0.599993ZM15.3853 3.5043C14.7917 3.62301 13.4859 5.75629 13.4859 7.2954V11.3257L3.03911 17.849V19.8612L13.4859 16.6025V23.3573L9.68705 26.2064V27.8031L15.3853 26.1471L21.0835 27.8031V26.2064L17.2847 23.3573V16.6025L27.7315 19.8612V17.849L17.2847 11.3257V7.2954C17.2847 5.69693 16.0382 3.56365 15.3853 3.5043Z" fill="white"/>
</svg>
