<svg width="31" height="31" viewBox="0 0 31 31" fill="none" xmlns="http://www.w3.org/2000/svg">
<g clip-path="url(#clip0_1_153)">
<path d="M14.6862 8.98113C15.2442 8.42318 16.1464 8.42318 16.6509 8.98113L21.5894 13.8662C22.8893 15.1661 22.8893 17.2673 21.5894 18.5672C20.2954 19.8671 18.1883 19.8671 16.8883 18.5672L16.6509 18.3773C16.6865 18.3595 16.6628 18.3417 16.5916 18.3239V20.4904H17.5413C18.117 20.4904 18.491 20.9712 18.491 21.4401C18.491 22.0159 18.117 22.3898 17.5413 22.3898H13.7424C13.2735 22.3898 12.7927 22.0159 12.7927 21.4401C12.7927 20.9712 13.2735 20.4904 13.7424 20.4904H14.6921V18.3239C14.7278 18.3417 14.704 18.3595 14.6862 18.3773L14.5022 18.5672C13.1489 19.8671 11.0951 19.8671 9.79938 18.5672C8.50125 17.2673 8.50125 15.1661 9.79938 13.8662L14.6862 8.98113ZM4.2988 4.3988C4.2988 2.30054 5.99937 0.599976 8.09762 0.599976H23.2929C25.3882 0.599976 27.0917 2.30054 27.0917 4.3988V27.1918C27.0917 29.287 25.3882 30.9906 23.2929 30.9906H8.09762C5.99937 30.9906 4.2988 29.287 4.2988 27.1918V4.3988ZM7.14792 4.3988V27.1918C7.14792 27.7141 7.57291 28.1415 8.09762 28.1415H23.2929C23.8153 28.1415 24.2426 27.7141 24.2426 27.1918V4.3988C24.2426 3.87409 23.8153 3.44909 23.2929 3.44909H8.09762C7.57291 3.44909 7.14792 3.87409 7.14792 4.3988Z" fill="white"/>
</g>
<defs>
<clipPath id="clip0_1_153">
<rect width="30.3906" height="30.3906" fill="white" transform="translate(0.499969 0.599976)"/>
</clipPath>
</defs>
</svg>
