<svg width="32" height="31" viewBox="0 0 32 31" fill="none" xmlns="http://www.w3.org/2000/svg">
<g clip-path="url(#clip0_1_93)">
<path d="M9.02898 11.9157C9.17144 11.3886 9.71277 11.0752 10.2019 11.2177L15.1308 12.5235C16.3655 12.8559 17.0967 14.1238 16.7691 15.3584C16.4367 16.593 15.1688 17.3243 13.9342 16.9919L13.5163 16.8827C13.4973 16.8779 13.4784 16.8732 13.4594 16.8684L14.3046 18.3262L14.8744 17.9986C15.1926 17.8134 15.5962 17.9226 15.7766 18.236C15.9618 18.5542 15.8526 18.9578 15.5345 19.143L13.2457 20.4631C12.9323 20.6435 12.5286 20.5391 12.3435 20.2209C12.163 19.9028 12.2675 19.4991 12.5856 19.3187L13.1602 18.9863L12.315 17.5285C12.3102 17.5475 12.3055 17.5665 12.3007 17.5807L12.1868 18.0033C11.8164 19.238 10.5912 19.9692 9.35663 19.6368C8.12201 19.2665 7.39074 18.0366 7.71839 16.8067L9.02898 11.9157ZM11.37 3.99366C12.6331 3.26362 14.2524 3.69688 14.9836 4.9615L22.9137 18.6966C23.6402 19.9645 23.2081 21.579 21.945 22.3103L12.7851 27.5954C11.522 28.3267 9.90746 27.8945 9.17619 26.6314L1.24462 12.8939C0.514581 11.6261 0.947837 10.0116 2.21247 9.28029L11.37 3.99366ZM12.5097 5.96772L3.35211 11.2557C3.17784 11.3554 3.11801 11.5786 3.21868 11.7543L11.1516 25.4918C11.2513 25.6627 11.4745 25.7245 11.6454 25.582L20.8053 20.3349C20.981 20.2352 21.038 20.012 20.9383 19.8363L13.0083 6.10115C12.9085 5.92688 12.6854 5.86705 12.5097 5.96772ZM16.28 27.3342L22.7048 23.6256C24.6944 22.4765 25.3782 19.9312 24.229 17.9369L17.733 6.68997C17.8185 6.6819 17.8992 6.63536 17.9847 6.63536H28.6214C30.0887 6.63536 31.2806 7.86856 31.2806 9.29454V25.2923C31.2806 26.7596 30.0887 27.9515 28.6214 27.9515H17.9847C17.3389 27.9515 16.7406 27.7188 16.28 27.2915V27.3342ZM28.422 10.0828C27.7572 9.52247 26.7837 9.63168 26.1949 10.2347L25.967 10.4864L25.7296 10.2347C25.136 9.63168 24.1531 9.52247 23.512 10.0828C22.7665 10.7238 22.7285 11.8587 23.3933 12.5473L25.6963 14.9215C25.8388 15.0735 26.0857 15.0735 26.2424 14.9215L28.5265 12.5473C29.1912 11.8587 29.158 10.7238 28.422 10.0828Z" fill="white"/>
</g>
<defs>
<clipPath id="clip0_1_93">
<rect width="30.3906" height="30.3906" fill="white" transform="translate(0.889999 0.599976)"/>
</clipPath>
</defs>
</svg>
