<svg width="31" height="31" viewBox="0 0 31 31" fill="none" xmlns="http://www.w3.org/2000/svg">
<g clip-path="url(#clip0_1_110)">
<path d="M30.3579 20.6008C30.3579 20.3065 30.3359 20.0077 30.2904 19.7066L28.9845 11.0976C28.6674 8.73896 27.6369 5.15857 15.1626 5.15857C2.71903 5.15857 1.74036 8.71522 1.37899 11.099L0.0793193 19.7081C0.0324702 20.012 0.00999069 20.3111 0.00999069 20.6103C0.00999069 23.7681 2.54333 26.432 5.76521 26.432C7.95523 26.4261 9.96149 25.1736 10.9221 23.203L11.5774 21.8734H18.8284L19.4813 23.203C20.4429 25.1736 22.4373 26.4263 24.6288 26.432C27.8601 26.432 30.3579 23.7633 30.3579 20.6008ZM28.0786 20.6008C28.0786 21.4551 27.774 22.2889 27.2115 22.9494C26.5628 23.7158 25.6098 24.1546 24.6083 24.1546C24.6016 24.1546 24.5949 24.1546 24.5881 24.1545C23.2704 24.1545 22.0833 23.4066 21.4897 22.2015L20.6198 20.4421C20.4049 19.9218 19.8778 19.5941 19.2985 19.5941H11.1073C10.5294 19.5941 10.0014 19.9221 9.74496 20.4403L8.87502 22.1996C8.65322 22.6499 7.75722 24.1527 5.74479 24.1527C4.74333 24.1527 3.79599 23.7084 3.15304 22.9475C2.59034 22.287 2.28596 21.4532 2.28596 20.5989C2.28596 20.4166 2.29983 20.2334 2.32801 20.0509L3.63386 11.4418C3.8658 9.93084 4.95321 8.74371 6.41101 8.41606C9.30762 7.76456 12.2565 7.43786 15.1626 7.43786C18.0687 7.43786 21.0602 7.76433 23.9521 8.41701C25.4123 8.74347 26.4982 9.93084 26.73 11.4442L28.0358 20.0533C28.1071 20.2352 28.0786 20.4156 28.0786 20.6008ZM18.9614 15.0355C18.1247 15.0355 17.4846 15.7184 17.4846 16.555C17.4846 17.3917 18.167 18.0746 18.9614 18.0746C19.7558 18.0746 20.4382 17.3917 20.4382 16.555C20.4382 15.7184 19.8399 15.0355 18.9614 15.0355ZM11.7436 13.1361L10.226 13.1356L10.2241 11.6166C10.2241 10.9898 9.71219 10.4769 9.08538 10.4769C8.50036 10.4769 7.94479 10.9898 7.94479 11.6166L7.94653 13.1356L6.42526 13.1361C5.79845 13.1361 5.28656 13.6489 5.28656 14.2757C5.28656 14.9026 5.79798 15.4154 6.42526 15.4154L7.94669 15.4149L7.94479 16.9349C7.94479 17.5617 8.45858 18.0746 9.08538 18.0746C9.71219 18.0746 10.2241 17.5617 10.2241 16.9349L10.2258 15.4149L11.7436 15.4154C12.3704 15.4154 12.8842 14.9026 12.8842 14.2757C12.8833 13.6489 12.4132 13.1361 11.7436 13.1361ZM22.0004 10.4769C21.1637 10.4769 20.5236 11.1598 20.5236 11.9965C20.5236 12.8331 21.206 13.516 22.0004 13.516C22.8371 13.516 23.4772 12.8331 23.4772 11.9965C23.4772 11.1598 22.8789 10.4769 22.0004 10.4769Z" fill="white"/>
</g>
<defs>
<clipPath id="clip0_1_110">
<rect width="30.3906" height="30.3906" fill="white" transform="translate(0.00999069 0.599976)"/>
</clipPath>
</defs>
</svg>
