<svg width="31" height="31" viewBox="0 0 31 31" fill="none" xmlns="http://www.w3.org/2000/svg">
<path d="M10.9021 14.1689L12.7303 19.5941H18.4582L20.2163 14.1701L15.5853 10.8153L10.9021 14.1689ZM15.5319 0.599976C7.19228 0.599976 0.390015 7.40225 0.390015 15.7953C0.390015 24.1883 7.19228 30.9906 15.5853 30.9906C23.9783 30.9906 30.7272 24.1883 30.7272 15.8487C30.7272 7.50909 23.9783 0.599976 15.5319 0.599976ZM26.222 22.0337L20.0549 21.94L18.2344 27.8472C17.3779 28.0346 16.4935 28.1415 15.5853 28.1415C14.6772 28.1415 13.7933 28.0362 12.9404 27.8488L11.1217 21.9446L4.95038 22.0337C4.06418 20.529 3.47893 18.8278 3.30026 17.005L8.36161 13.4448L6.36722 7.60999C7.54545 6.28397 8.99791 5.20902 10.6433 4.48665L15.5853 8.19763L20.5291 4.48962C22.1745 5.21199 23.6269 6.28634 24.8052 7.61296L22.809 13.4448L27.868 17.0044C27.6406 18.8284 27.1064 20.5319 26.222 22.0337Z" fill="white"/>
</svg>
