<svg width="31" height="31" viewBox="0 0 31 31" fill="none" xmlns="http://www.w3.org/2000/svg">
<g clip-path="url(#clip0_1_127)">
<path opacity="0.4" d="M11.6155 13.8142C13.4481 13.332 14.3682 10.8464 13.6633 8.27182C13.2775 6.85468 12.4762 5.71949 11.5265 5.05172V0.599976L7.72764 5.34851C6.83729 6.40209 6.51083 8.18279 7.01536 10.0228C7.72022 12.5974 9.77544 14.2965 11.6155 13.8142ZM19.0351 13.8142C20.8751 14.2965 22.9304 12.5974 23.6352 10.0228C24.1398 8.18279 23.8133 6.40209 22.9229 5.34851L19.1241 0.599976V5.05172C18.1744 5.71949 17.3731 6.85468 16.9873 8.27182C16.2824 10.8464 17.2024 13.332 19.0351 13.8142ZM6.58502 15.0459C6.15469 13.6213 5.10853 12.5603 3.92881 12.1671V8.19763L1.22809 11.9C0.515808 12.8794 0.12999 14.0591 0.12999 15.2685C0.12999 15.6766 0.196766 16.1069 0.322899 16.5447C0.938724 18.5999 2.84556 19.9354 4.57432 19.5199C6.30308 19.1044 7.20085 17.1012 6.58502 15.0459ZM29.4225 11.9L26.7218 8.19763V12.1745C25.5421 12.5603 24.4959 13.6213 24.0656 15.0459C23.4497 17.1012 24.3475 19.1044 26.0763 19.5199C27.805 19.9354 29.7119 18.5999 30.3277 16.5447C30.4538 16.1143 30.5206 15.684 30.5206 15.2685C30.5206 14.0591 30.1348 12.8794 29.4225 11.9Z" fill="white"/>
<path d="M15.3253 15.7953C10.6139 15.7953 3.92882 23.0813 3.92882 27.6815C3.92882 29.7515 5.51661 30.9906 8.18766 30.9906C11.0887 30.9906 13.003 29.4993 15.3253 29.4993C17.6699 29.4993 19.5916 30.9906 22.4629 30.9906C25.134 30.9906 26.7218 29.7515 26.7218 27.6815C26.7218 23.0813 20.0367 15.7953 15.3253 15.7953Z" fill="white"/>
</g>
<defs>
<clipPath id="clip0_1_127">
<rect width="30.3906" height="30.3906" fill="white" transform="translate(0.12999 0.599976)"/>
</clipPath>
</defs>
</svg>
