<svg width="32" height="31" viewBox="0 0 32 31" fill="none" xmlns="http://www.w3.org/2000/svg">
<g clip-path="url(#clip0_1_84)">
<path d="M27.4218 2.49841H4.62881C2.53055 2.49841 0.829987 4.19898 0.829987 6.29724V25.2914C0.829987 27.3896 2.53055 29.0902 4.62881 29.0902H27.4218C29.52 29.0902 31.2206 27.3896 31.2206 25.2914V6.29724C31.2206 4.19898 29.5171 2.49841 27.4218 2.49841ZM15.9125 5.34753H19.9416L15.1931 10.0961H11.164L15.9125 5.34753ZM3.67911 8.08387L6.41307 5.34753H10.4422L5.69367 10.0961H3.67911V8.08387ZM28.3715 25.2914C28.3715 25.815 27.9454 26.2411 27.4218 26.2411H4.62881C4.10517 26.2411 3.67911 25.815 3.67911 25.2914V12.9452H28.3715V25.2914ZM28.3715 6.41239L24.6854 10.0961H20.6563L25.4048 5.34753H27.4218C27.9454 5.34753 28.3715 5.77359 28.3715 6.29724V6.41239ZM13.8113 24.3417C13.9276 24.3417 14.045 24.3084 14.1464 24.2418L20.4798 20.148C20.661 20.0264 20.7738 19.8187 20.7738 19.5397C20.7738 19.2607 20.6613 19.104 20.4758 18.9845L14.1424 14.8907C13.9537 14.8149 13.7044 14.8149 13.5026 14.9277C13.3008 15.0405 13.1762 15.2601 13.1762 15.4975V23.6828C13.1762 23.9207 13.3011 24.1401 13.5026 24.2559C13.5976 24.312 13.7044 24.3417 13.8113 24.3417Z" fill="white"/>
</g>
<defs>
<clipPath id="clip0_1_84">
<rect width="30.3906" height="30.3906" fill="white" transform="translate(0.829987 0.599976)"/>
</clipPath>
</defs>
</svg>
