<svg width="32" height="31" viewBox="0 0 32 31" fill="none" xmlns="http://www.w3.org/2000/svg">
<g clip-path="url(#clip0_1_101)">
<path d="M28.2588 12.7562H23.4058C23.5744 13.2363 23.6788 13.7406 23.6788 14.2648C23.6788 15.4824 23.2047 16.6272 22.3435 17.4886L16.1453 23.7348V24.9144C16.1453 26.5887 17.5081 27.9515 19.1416 27.9515H28.2161C29.8947 27.9515 31.2124 26.5911 31.2124 24.9552V15.8808C31.2979 14.119 29.9778 12.7562 28.2588 12.7562ZM23.7002 21.4935C23.071 21.4935 22.6033 20.983 22.6033 20.3966C22.6033 19.767 23.1138 19.2997 23.7002 19.2997C24.2867 19.2997 24.7971 19.8097 24.7971 20.3966C24.8399 20.9854 24.3745 21.4935 23.7002 21.4935ZM22.1997 14.2663C22.1997 13.4884 21.9029 12.7106 21.3093 12.1171L13.7236 4.52844C13.13 3.93525 12.3607 3.63904 11.544 3.63904C10.7272 3.63904 10.0197 3.93525 9.42613 4.52844L1.83798 12.1166C1.24607 12.7087 0.949951 13.497 0.949951 14.233C0.949951 14.969 1.24607 15.7796 1.83935 16.3727L9.4275 23.9609C10.0211 24.5544 10.7989 24.8507 11.5767 24.8507C12.3545 24.8507 13.1323 24.554 13.7254 23.9609L21.3136 16.3727C21.9053 15.819 22.1997 15.0403 22.1997 14.2663ZM19.702 14.8028L12.1138 22.391C11.9203 22.5845 11.6941 22.6135 11.5767 22.6135C11.4591 22.6135 11.233 22.5846 11.0397 22.391L3.45105 14.8028C3.25731 14.6081 3.22882 14.3802 3.22882 14.2663C3.22882 14.1523 3.25767 13.9226 3.45134 13.7292L11.0395 6.14104C11.2333 5.9473 11.4595 5.91838 11.577 5.91838C11.6946 5.91838 11.9205 5.94732 12.1141 6.14094L19.7022 13.7291C19.8959 13.9227 19.9248 14.1489 19.9248 14.2662C19.9248 14.3834 19.8919 14.6081 19.702 14.8028ZM11.5772 17.9606C10.9699 17.9606 10.4803 18.4492 10.4803 19.0575C10.4803 19.7109 11.0145 20.1544 11.5772 20.1544C12.2292 20.1544 12.7169 19.6216 12.7169 19.0575C12.7169 18.4924 12.2278 17.9606 11.5772 17.9606ZM11.5772 13.1266C10.9238 13.1266 10.4803 13.6608 10.4803 14.2235C10.4803 14.8332 10.9713 15.3204 11.5772 15.3204C12.2282 15.3204 12.7169 14.7881 12.7169 14.2235C12.7169 13.6157 12.2278 13.1266 11.5772 13.1266ZM6.73846 13.1266C6.08507 13.1266 5.59882 13.6608 5.59882 14.2235C5.59882 14.8309 6.08744 15.3204 6.73846 15.3204C7.38949 15.3204 7.83537 14.7886 7.83537 14.2235C7.87811 13.6157 7.39376 13.1266 6.73846 13.1266ZM16.4112 13.1266C15.7578 13.1266 15.2716 13.6608 15.2716 14.2235C15.2716 14.8309 15.7602 15.3204 16.4112 15.3204C17.0622 15.3204 17.5509 14.7881 17.5509 14.2235C17.5509 13.6157 17.0618 13.1266 16.4112 13.1266ZM11.5772 8.28975C10.9699 8.28975 10.4803 8.77837 10.4803 9.38666C10.4803 10.0401 11.0145 10.4836 11.5772 10.4836C12.2292 10.4836 12.7169 9.95079 12.7169 9.38666C12.7169 8.81969 12.2278 8.28975 11.5772 8.28975Z" fill="white"/>
</g>
<defs>
<clipPath id="clip0_1_101">
<rect width="30.3906" height="30.3906" fill="white" transform="translate(0.949997 0.599976)"/>
</clipPath>
</defs>
</svg>
