<svg width="31" height="31" viewBox="0 0 31 31" fill="none" xmlns="http://www.w3.org/2000/svg">
<g clip-path="url(#clip0_1_118)">
<path opacity="0.4" d="M22.6749 7.04468L21.9137 7.80581L23.2553 9.14733L24.0165 8.3862C24.3871 8.01564 24.3871 7.41531 24.0165 7.04468C23.6458 6.67406 23.0455 6.67412 22.6749 7.04468ZM30.2864 4.11205L27.9314 3.13005L26.9494 0.775315C26.9012 0.678386 26.7747 0.599976 26.6667 0.599976C26.5585 0.599976 26.4319 0.678386 26.3837 0.775315L25.4017 3.13005L23.0469 4.11205C22.9506 4.16019 22.8722 4.28679 22.8722 4.39482C22.8722 4.50232 22.9506 4.62958 23.0469 4.67778L25.4017 5.65971L26.3837 8.01439C26.4319 8.11132 26.5585 8.18979 26.6667 8.18979C26.7747 8.18979 26.9012 8.11132 26.9494 8.01439L27.9314 5.65971L30.2864 4.67778C30.3827 4.62958 30.4611 4.50232 30.4611 4.39482C30.4611 4.28679 30.3827 4.16019 30.2864 4.11205Z" fill="white"/>
<path d="M25.3369 11.255L19.8147 5.73298C19.3145 5.23272 18.5035 5.23272 18.0032 5.73298L16.663 7.07325C15.3369 6.58671 13.9109 6.30755 12.4162 6.30755C5.59758 6.30755 0.0699883 11.8351 0.0699883 18.6537C0.0699883 25.4723 5.59758 30.9999 12.4162 30.9999C19.2348 30.9999 24.7624 25.4723 24.7624 18.6537C24.7624 17.159 24.4832 15.7329 23.9967 14.4068L25.3369 13.0667C25.8371 12.5664 25.8371 11.7554 25.3369 11.255ZM12.4162 12.0058C8.7509 12.0058 5.76823 14.9885 5.76823 18.6537C5.76823 19.1786 5.34347 19.6034 4.81852 19.6034C4.29357 19.6034 3.86881 19.1786 3.86881 18.6537C3.86881 13.9404 7.7029 10.1064 12.4162 10.1064C12.9411 10.1064 13.3659 10.5311 13.3659 11.0561C13.3659 11.581 12.9411 12.0058 12.4162 12.0058Z" fill="white"/>
</g>
<defs>
<clipPath id="clip0_1_118">
<rect width="30.3906" height="30.3906" fill="white" transform="translate(0.0699883 0.599976)"/>
</clipPath>
</defs>
</svg>
