<svg width="31" height="31" viewBox="0 0 31 31" fill="none" xmlns="http://www.w3.org/2000/svg">
<g clip-path="url(#clip0_1_162)">
<path d="M13.6359 15.7953C13.6359 14.7447 14.4847 13.8959 15.5353 13.8959C16.5859 13.8959 17.4347 14.7447 17.4347 15.7953C17.4347 16.8459 16.5859 17.6947 15.5353 17.6947C14.4847 17.6947 13.6359 16.8459 13.6359 15.7953ZM30.7306 15.7953C30.7306 24.1883 23.9284 30.9906 15.5353 30.9906C7.1423 30.9906 0.340027 24.1883 0.340027 15.7953C0.340027 7.40225 7.1423 0.599976 15.5353 0.599976C23.9284 0.599976 30.7306 7.40225 30.7306 15.7953ZM15.5353 4.3988C9.1901 4.3988 4.13885 9.45005 4.13885 15.7953C4.13885 22.0871 9.1901 27.1918 15.5353 27.1918C21.8271 27.1918 26.9318 22.0871 26.9318 15.7953C26.9318 9.45005 21.8271 4.3988 15.5353 4.3988Z" fill="white"/>
<path opacity="0.4" d="M6.98846 15.7958C6.98846 11.0769 10.817 7.24841 15.5358 7.24841C20.2547 7.24841 24.0832 11.0769 24.0832 15.7958C24.0832 20.5146 20.2547 24.3431 15.5358 24.3431C10.817 24.3431 6.98846 20.5146 6.98846 15.7958ZM15.5358 20.5443C18.1594 20.5443 20.2844 18.4193 20.2844 15.7958C20.2844 13.1722 18.1594 11.0472 15.5358 11.0472C12.9123 11.0472 10.7873 13.1722 10.7873 15.7958C10.7873 18.4193 12.9123 20.5443 15.5358 20.5443Z" fill="white"/>
</g>
<defs>
<clipPath id="clip0_1_162">
<rect width="30.3906" height="30.3906" fill="white" transform="translate(0.340027 0.599976)"/>
</clipPath>
</defs>
</svg>
