<svg width="31" height="31" viewBox="0 0 31 31" fill="none" xmlns="http://www.w3.org/2000/svg">
<g clip-path="url(#clip0_1_145)">
<path d="M24.7196 9.0945C24.7196 10.4597 23.6572 11.4688 22.3454 11.4688C21.0336 11.4688 19.9711 10.4597 19.9711 9.0945C19.9711 7.83614 21.0336 6.72024 22.3454 6.72024C23.6572 6.72024 24.7196 7.83614 24.7196 9.0945ZM23.2951 19.1258V23.999C23.2951 25.5126 22.4997 26.9074 21.1998 27.6791L15.9467 30.7894C15.5075 31.0505 14.9614 31.0565 14.5162 30.8072C14.0711 30.5519 13.798 30.0771 13.798 29.5666V22.7584C13.798 21.411 13.2638 20.0755 12.3141 19.1258C11.3644 18.1761 10.0823 17.6953 8.7349 17.6953H1.92669C1.41504 17.6953 0.942202 17.4222 0.688868 16.9771C0.435474 16.5319 0.440282 15.9858 0.701392 15.5466L3.81601 10.2935C4.58528 8.9936 5.98253 8.1448 7.49434 8.1448H12.3675C17.2229 0.375133 24.7671 0.093307 29.2248 0.913497C29.9193 1.04046 30.4535 1.57699 30.5781 2.26671C31.3973 6.72617 31.1183 14.2704 23.2951 19.1258ZM12.2488 15.6712C13.0145 16.0452 13.7149 16.5497 14.2788 17.1611C14.9436 17.7784 15.4481 18.4788 15.8221 19.2445C22.102 17.4638 25.1233 14.5197 26.6012 11.7596C28.0852 8.98766 28.1683 5.97056 27.9071 3.58799C25.521 3.2728 22.5056 3.41051 19.6803 4.89383C16.9736 6.36766 14.0295 9.39129 12.2488 15.6712ZM2.99392 21.1083C5.0352 19.0664 8.34314 19.0664 10.385 21.1083C12.4269 23.1502 12.4269 26.4563 10.385 28.4982C7.44686 31.4363 0.530415 30.9615 0.530415 30.9615C0.530415 30.9615 0.0560073 23.993 2.99392 21.1083ZM4.33538 27.1567C4.33538 27.1567 6.63367 27.317 7.61306 26.3376C8.28972 25.6609 8.28972 24.5569 7.61306 23.8802C6.93046 23.2036 5.83295 23.2036 5.15451 23.8802C4.17749 24.8596 4.33538 27.1567 4.33538 27.1567Z" fill="white"/>
</g>
<defs>
<clipPath id="clip0_1_145">
<rect width="30.3906" height="30.3906" fill="white" transform="translate(0.502136 0.599976)"/>
</clipPath>
</defs>
</svg>
