<svg width="31" height="31" viewBox="0 0 31 31" fill="none" xmlns="http://www.w3.org/2000/svg">
<g clip-path="url(#clip0_1_76)">
<path d="M10.9114 14.1689L12.7396 19.5941H18.4675L20.2257 14.1701L15.5947 10.8153L10.9114 14.1689ZM15.5413 0.599976C7.20165 0.599976 0.399384 7.40225 0.399384 15.7953C0.399384 24.1883 7.20165 30.9906 15.5947 30.9906C23.9877 30.9906 30.7366 24.1883 30.7366 15.8487C30.7366 7.50909 23.9877 0.599976 15.5413 0.599976ZM26.2314 22.0337L20.0642 21.94L18.2438 27.8472C17.3872 28.0346 16.5028 28.1415 15.5947 28.1415C14.6865 28.1415 13.8027 28.0362 12.9497 27.8488L11.1311 21.9446L4.95975 22.0337C4.07355 20.529 3.4883 18.8278 3.30963 17.005L8.37097 13.4448L6.37659 7.60999C7.55482 6.28397 9.00728 5.20902 10.6526 4.48665L15.5947 8.19763L20.5385 4.48962C22.1839 5.21199 23.6363 6.28634 24.8145 7.61296L22.8184 13.4448L27.8773 17.0044C27.65 18.8284 27.1158 20.5319 26.2314 22.0337Z" fill="white"/>
</g>
<defs>
<clipPath id="clip0_1_76">
<rect width="30.3906" height="30.3906" fill="white" transform="translate(0.399384 0.599976)"/>
</clipPath>
</defs>
</svg>
